<?xml version='1.0' encoding='ascii'?>
<svg xmlns="http://www.w3.org/2000/svg" version="1.1" width="1920" height="1080">
    <g id="ViewLayer_LineSet" xmlns:inkscape="http://www.inkscape.org/namespaces/inkscape" inkscape:groupmode="lineset" inkscape:label="ViewLayer_LineSet">
        <g xmlns:inkscape="http://www.inkscape.org/namespaces/inkscape" inkscape:groupmode="layer" id="strokes" inkscape:label="strokes">
            <path fill="none" stroke-width="3.0" stroke-linecap="butt" stroke-opacity="1.0" stroke="rgb(0, 0, 0)" stroke-linejoin="round" d=" M 833.152, 561.165 831.653, 560.004 823.746, 553.882 815.839, 547.759 807.932, 541.637 800.026, 535.514 792.119, 529.392 785.749, 524.460 785.749, 523.269 785.749, 513.269 785.749, 503.269 785.749, 493.269 785.749, 486.794 785.749, 482.339 785.749, 472.339 785.750, 462.339 785.750, 452.339 785.750, 442.339 785.750, 432.339 785.750, 422.339 785.750, 412.339 785.750, 402.339 785.750, 392.339 785.750, 382.339 785.750, 372.339 785.750, 362.339 785.750, 352.339 785.750, 342.339 785.750, 332.339 785.750, 322.339 785.750, 312.339 785.750, 302.339 785.750, 292.339 785.750, 282.339 785.750, 279.945 " />
            <path fill="none" stroke-width="3.0" stroke-linecap="butt" stroke-opacity="1.0" stroke="rgb(0, 0, 0)" stroke-linejoin="round" d=" M 785.750, 279.945 785.750, 274.660 785.750, 273.063 785.750, 271.326 785.750, 269.551 785.750, 259.551 785.750, 249.551 785.750, 239.551 785.750, 229.551 785.750, 219.551 785.750, 215.182 789.800, 206.039 793.851, 196.897 797.902, 187.754 801.953, 178.611 806.003, 169.468 810.054, 160.325 814.105, 151.182 818.155, 142.040 822.206, 132.897 826.257, 123.754 830.308, 114.611 831.653, 111.575 833.152, 108.191 836.204, 105.928 844.237, 99.973 852.270, 94.017 860.304, 88.061 868.337, 82.106 876.370, 76.150 884.403, 70.195 892.436, 64.239 900.469, 58.284 908.502, 52.328 916.535, 46.372 924.569, 40.417 929.675, 36.631 " />
            <path fill="none" stroke-width="3.0" stroke-linecap="butt" stroke-opacity="1.0" stroke="rgb(0, 0, 0)" stroke-linejoin="round" d=" M 839.796, 563.502 834.598, 559.477 826.691, 553.354 818.784, 547.232 810.878, 541.109 802.971, 534.987 795.064, 528.865 792.394, 526.797 792.394, 522.666 792.394, 512.666 792.394, 502.666 792.394, 492.666 792.394, 489.131 792.394, 479.131 792.394, 473.682 792.394, 463.682 792.394, 453.682 792.394, 443.682 792.394, 433.682 792.394, 423.682 792.394, 413.682 792.394, 403.682 792.394, 393.682 792.394, 383.682 792.394, 373.682 792.394, 363.682 792.394, 353.682 792.394, 343.682 792.394, 333.682 792.394, 323.682 792.394, 313.682 792.394, 303.553 792.394, 293.553 792.394, 285.224 792.394, 279.688 792.394, 273.663 792.394, 267.506 792.394, 257.506 792.394, 247.506 792.394, 237.506 792.394, 227.506 792.394, 217.519 796.445, 208.376 800.495, 199.234 804.546, 190.091 808.597, 180.948 812.648, 171.805 816.698, 162.662 820.749, 153.519 824.800, 144.377 828.850, 135.234 832.901, 126.091 834.598, 122.261 838.649, 113.118 839.796, 110.528 847.829, 104.573 850.381, 102.681 858.414, 96.725 866.447, 90.770 874.480, 84.814 882.513, 78.858 890.547, 72.903 898.580, 66.947 906.613, 60.992 914.646, 55.036 922.679, 49.081 930.712, 43.125 936.319, 38.968 " />
            <path fill="none" stroke-width="3.0" stroke-linecap="butt" stroke-opacity="1.0" stroke="rgb(0, 0, 0)" stroke-linejoin="round" d=" M 956.252, 45.979 950.694, 50.100 942.661, 56.055 934.628, 62.011 926.595, 67.966 918.562, 73.922 910.529, 79.878 902.495, 85.833 894.462, 91.789 892.911, 92.939 884.878, 98.894 876.845, 104.850 868.812, 110.805 860.779, 116.761 859.729, 117.539 856.136, 125.649 852.086, 134.791 848.035, 143.934 843.984, 153.077 843.433, 154.320 839.383, 163.463 835.332, 172.606 831.281, 181.749 827.230, 190.892 823.180, 200.035 819.129, 209.177 815.078, 218.320 812.327, 224.530 812.327, 234.530 812.327, 244.530 812.327, 254.530 812.327, 261.373 812.327, 271.373 812.327, 280.674 812.327, 290.674 812.327, 299.562 812.327, 309.562 812.327, 316.915 812.327, 326.915 812.327, 336.915 812.327, 346.915 812.327, 356.915 812.327, 366.915 812.327, 374.375 812.327, 384.375 812.327, 394.375 812.327, 404.375 812.327, 414.375 812.327, 424.375 812.327, 434.375 812.327, 444.375 812.327, 447.713 812.327, 457.713 812.327, 467.713 812.327, 477.713 812.327, 487.713 812.327, 496.142 812.327, 499.577 812.327, 509.577 812.327, 519.577 812.327, 520.859 812.327, 530.859 812.327, 533.808 " />
            <path fill="none" stroke-width="3.0" stroke-linecap="butt" stroke-opacity="1.0" stroke="rgb(0, 0, 0)" stroke-linejoin="round" d=" M 818.971, 498.479 818.971, 488.479 818.971, 478.479 818.971, 468.479 818.971, 458.479 818.971, 448.479 818.971, 439.056 818.971, 429.056 818.971, 419.056 818.971, 409.056 818.971, 399.056 818.971, 397.982 818.971, 387.982 818.971, 377.982 818.971, 367.982 818.971, 357.982 818.971, 347.982 818.971, 337.982 818.971, 327.479 818.971, 317.479 818.971, 307.479 818.971, 306.186 818.971, 296.186 818.971, 286.186 818.971, 283.011 818.971, 273.011 818.971, 263.011 818.971, 259.329 818.971, 249.329 818.971, 239.329 818.971, 229.329 818.971, 226.867 823.022, 217.725 827.073, 208.582 831.123, 199.439 835.174, 190.296 839.225, 181.153 843.275, 172.010 846.378, 165.007 850.429, 155.864 854.480, 146.721 858.531, 137.578 862.581, 128.435 866.373, 119.876 874.406, 113.921 882.440, 107.965 890.473, 102.010 898.506, 96.054 906.539, 90.098 907.088, 89.691 915.121, 83.736 923.154, 77.780 931.187, 71.824 931.492, 71.598 939.526, 65.643 947.559, 59.687 955.486, 53.810 961.044, 49.690 962.896, 48.316 " />
            <path fill="none" stroke-width="3.0" stroke-linecap="butt" stroke-opacity="1.0" stroke="rgb(0, 0, 0)" stroke-linejoin="round" d=" M 976.185, 52.990 974.332, 54.364 972.480, 55.737 970.627, 57.111 965.070, 61.231 957.036, 67.187 949.003, 73.142 944.781, 76.272 936.748, 82.228 935.442, 83.196 927.409, 89.152 919.375, 95.108 911.342, 101.063 903.309, 107.019 895.276, 112.974 887.243, 118.930 879.662, 124.550 875.611, 133.693 871.560, 142.836 867.510, 151.979 863.459, 161.122 859.408, 170.265 855.358, 179.407 852.269, 186.380 848.218, 195.522 844.167, 204.665 840.116, 213.808 836.066, 222.951 832.260, 231.541 832.260, 241.541 832.260, 251.541 832.260, 255.240 832.260, 265.240 832.260, 275.240 832.260, 285.240 832.260, 287.685 832.260, 297.685 832.260, 307.685 832.260, 317.685 832.260, 319.435 832.260, 329.435 832.260, 339.435 832.260, 340.237 832.260, 342.626 " />
            <path fill="none" stroke-width="3.0" stroke-linecap="butt" stroke-opacity="1.0" stroke="rgb(0, 0, 0)" stroke-linejoin="round" d=" M 838.904, 344.963 838.904, 339.287 838.904, 329.287 838.904, 326.060 838.904, 316.060 838.904, 306.060 838.904, 296.060 838.904, 290.022 838.904, 280.022 838.904, 270.022 838.904, 260.022 838.904, 253.196 838.904, 243.196 838.904, 233.878 842.955, 224.736 847.005, 215.593 851.056, 206.450 855.214, 197.066 859.264, 187.923 863.315, 178.780 867.366, 169.638 871.417, 160.495 875.467, 151.352 879.518, 142.209 883.569, 133.066 886.306, 126.887 894.339, 120.932 902.372, 114.976 910.406, 109.021 918.439, 103.065 926.472, 97.109 934.505, 91.154 942.538, 85.198 949.618, 79.949 951.425, 78.609 959.458, 72.654 967.492, 66.698 969.861, 64.941 975.419, 60.821 977.271, 59.448 979.124, 58.074 980.976, 56.701 982.829, 55.327 " />
            <path fill="none" stroke-width="3.0" stroke-linecap="butt" stroke-opacity="1.0" stroke="rgb(0, 0, 0)" stroke-linejoin="round" d=" M 799.038, 529.134 799.038, 522.064 799.038, 512.064 799.038, 502.064 799.038, 492.064 799.038, 491.468 799.038, 481.468 799.038, 471.468 799.038, 465.026 799.038, 455.026 799.038, 445.026 799.038, 435.026 799.038, 425.026 799.038, 415.026 799.038, 405.026 799.038, 395.026 799.038, 385.026 799.038, 375.026 799.038, 365.026 799.038, 355.026 799.038, 345.026 799.038, 335.026 799.038, 327.160 799.038, 317.160 799.038, 307.160 799.038, 297.160 799.038, 295.787 799.038, 286.312 799.038, 276.312 799.038, 276.000 799.038, 266.000 799.038, 265.462 799.038, 255.462 799.038, 245.462 799.038, 235.462 799.038, 225.462 799.038, 219.856 803.089, 210.713 807.140, 201.571 811.190, 192.428 815.241, 183.285 819.292, 174.142 823.343, 164.999 827.393, 155.856 831.444, 146.714 835.495, 137.571 837.543, 132.947 841.594, 123.805 845.645, 114.662 846.440, 112.865 854.474, 106.910 862.507, 100.954 864.558, 99.433 872.591, 93.478 880.624, 87.522 888.657, 81.567 896.690, 75.611 904.723, 69.656 912.756, 63.700 920.790, 57.744 928.823, 51.789 936.856, 45.833 941.111, 42.679 942.963, 41.305 " />
            <path fill="none" stroke-width="3.0" stroke-linecap="butt" stroke-opacity="1.0" stroke="rgb(0, 0, 0)" stroke-linejoin="round" d=" M 962.330, 555.523 962.329, 555.521 955.577, 550.294 950.786, 546.583 946.051, 542.917 945.994, 542.873 938.087, 536.750 936.319, 535.381 933.148, 532.926 928.806, 529.564 923.135, 525.172 922.760, 524.882 922.760, 514.882 922.760, 504.882 922.760, 494.882 922.760, 490.305 922.760, 487.643 922.760, 485.450 922.760, 482.788 922.760, 480.594 922.760, 477.933 922.760, 475.691 922.760, 473.029 922.760, 470.836 922.760, 460.836 922.760, 450.836 922.760, 440.836 922.760, 430.836 922.760, 422.586 922.760, 412.586 922.760, 402.586 922.760, 392.586 922.760, 382.586 922.760, 372.586 922.760, 369.848 922.760, 368.734 922.760, 360.440 922.760, 352.354 922.760, 351.668 922.760, 351.570 922.760, 351.430 922.760, 348.909 922.760, 346.715 922.760, 346.151 922.760, 344.053 922.760, 338.733 922.760, 328.733 922.760, 326.024 922.760, 316.024 922.760, 306.024 922.760, 304.515 922.760, 294.515 922.760, 284.515 922.760, 281.327 922.760, 273.073 926.811, 263.930 930.862, 254.787 934.912, 245.644 938.963, 236.501 943.014, 227.358 947.065, 218.216 948.426, 215.143 951.943, 207.205 955.994, 198.062 956.178, 197.646 960.229, 188.503 961.455, 185.736 962.331, 183.759 970.364, 177.804 978.397, 171.848 986.430, 165.892 994.463, 159.937 996.410, 158.493 996.510, 158.419 996.542, 158.395 999.908, 155.900 1001.096, 155.019 1001.096, 155.019 1002.330, 154.105 1009.004, 149.156 1017.037, 143.201 1020.372, 140.728 1027.693, 135.300 1035.727, 129.345 1036.875, 128.493 1038.304, 127.434 1039.690, 126.406 1043.519, 129.371 1050.164, 134.516 1058.070, 140.638 1059.525, 141.765 1063.452, 144.805 1068.873, 149.003 1070.096, 149.950 1073.061, 152.246 1076.741, 155.095 1079.261, 157.046 1079.261, 167.046 1079.261, 177.046 1079.261, 180.235 1079.261, 188.489 1079.261, 198.489 1079.261, 208.489 1079.260, 218.489 1079.260, 228.027 1079.260, 230.689 1079.260, 240.689 1079.260, 250.689 1079.260, 260.689 1079.260, 270.689 1079.260, 280.689 1079.260, 290.689 1079.260, 300.689 1079.260, 310.689 1079.260, 320.689 1079.260, 324.891 1079.260, 327.085 1079.260, 329.747 1079.260, 331.940 1079.260, 334.602 1079.260, 336.844 1079.260, 339.505 1079.260, 341.699 1079.260, 344.361 1079.260, 346.554 1079.260, 349.216 1079.260, 356.755 1079.260, 361.989 1079.260, 371.989 1079.260, 381.989 1079.260, 391.989 1079.260, 396.553 1079.260, 406.553 1079.260, 408.856 1076.741, 414.544 1072.690, 423.687 1068.639, 432.829 1064.588, 441.972 1060.538, 451.115 1056.487, 460.258 1052.436, 469.401 1050.078, 474.724 1046.027, 483.867 1041.976, 493.010 1039.690, 498.170 1038.037, 499.395 1034.499, 502.018 1030.316, 505.119 1028.309, 506.607 1020.276, 512.563 1018.881, 513.597 1010.847, 519.553 1002.814, 525.508 994.781, 531.464 986.748, 537.419 981.648, 541.200 973.615, 547.155 965.583, 553.111 962.330, 555.523 " />
            <path fill="none" stroke-width="3.0" stroke-linecap="butt" stroke-opacity="1.0" stroke="rgb(0, 0, 0)" stroke-linejoin="round" d=" M 960.258, 417.111 960.258, 416.120 960.258, 412.965 960.258, 412.743 961.076, 412.137 961.080, 412.133 962.566, 411.032 964.341, 409.716 964.341, 409.716 966.562, 408.069 966.562, 407.808 966.562, 407.731 966.562, 403.088 " />
            <path fill="none" stroke-width="3.0" stroke-linecap="butt" stroke-opacity="1.0" stroke="rgb(0, 0, 0)" stroke-linejoin="round" d=" M 836.252, 344.030 836.252, 354.030 836.252, 364.030 836.252, 374.030 836.252, 380.444 836.252, 390.444 836.252, 400.444 836.252, 410.444 836.252, 420.444 836.252, 426.775 833.270, 428.985 832.260, 429.734 832.260, 438.432 832.260, 448.432 832.260, 458.432 832.260, 468.432 832.260, 478.432 832.260, 488.432 832.260, 498.432 832.260, 503.153 832.260, 513.153 832.259, 517.383 832.259, 519.052 " />
            <path fill="none" stroke-width="3.0" stroke-linecap="butt" stroke-opacity="1.0" stroke="rgb(0, 0, 0)" stroke-linejoin="round" d=" M 838.904, 518.450 838.904, 508.450 838.904, 505.490 838.904, 495.490 838.904, 485.490 838.904, 475.490 838.904, 465.490 838.904, 455.490 838.904, 452.735 838.904, 442.735 838.904, 432.735 838.904, 432.071 841.304, 430.292 841.829, 429.903 847.432, 425.749 847.432, 415.749 847.432, 405.749 847.432, 395.749 847.432, 393.697 847.432, 392.822 847.432, 387.399 847.432, 380.075 847.432, 370.075 847.432, 360.075 847.432, 350.075 847.432, 347.963 " />
            <path fill="none" stroke-width="3.0" stroke-linecap="butt" stroke-opacity="1.0" stroke="rgb(0, 0, 0)" stroke-linejoin="round" d=" M 838.904, 518.450 838.904, 524.283 838.904, 527.175 838.904, 537.175 838.904, 543.156 846.810, 549.278 847.361, 549.704 855.213, 555.785 856.219, 556.564 857.555, 557.598 865.462, 563.721 867.139, 565.019 871.931, 568.730 876.722, 572.440 881.514, 576.151 886.306, 579.861 " />
            <path fill="none" stroke-width="3.0" stroke-linecap="butt" stroke-opacity="1.0" stroke="rgb(0, 0, 0)" stroke-linejoin="round" d=" M 892.950, 582.198 891.914, 581.396 888.158, 578.488 883.367, 574.777 878.575, 571.067 873.783, 567.356 868.991, 563.646 862.863, 558.901 859.408, 556.225 858.159, 555.258 850.252, 549.135 847.361, 546.896 845.548, 545.493 845.548, 535.493 845.548, 534.074 845.548, 531.182 845.548, 521.182 845.548, 517.847 845.548, 507.827 845.548, 497.827 845.548, 487.827 845.548, 477.827 845.548, 467.827 845.548, 467.037 845.548, 457.037 845.548, 447.037 845.548, 437.037 845.548, 434.408 849.338, 431.598 854.076, 428.086 854.076, 418.086 854.076, 408.086 854.076, 398.086 854.076, 396.034 854.076, 395.159 854.076, 389.737 854.076, 382.412 854.076, 372.412 854.076, 363.293 854.076, 353.293 854.076, 350.300 " />
            <path fill="none" stroke-width="3.0" stroke-linecap="butt" stroke-opacity="1.0" stroke="rgb(0, 0, 0)" stroke-linejoin="round" d=" M 825.615, 430.399 825.615, 440.399 825.615, 450.399 825.615, 460.399 825.615, 470.399 825.615, 480.399 825.615, 490.399 825.615, 500.816 825.615, 510.484 825.615, 513.376 825.615, 519.655 825.615, 529.655 825.615, 538.482 833.522, 544.604 841.429, 550.727 849.058, 556.635 849.323, 556.840 853.850, 560.345 861.757, 566.468 863.434, 567.766 868.226, 571.477 873.017, 575.187 " />
            <path fill="none" stroke-width="3.0" stroke-linecap="butt" stroke-opacity="1.0" stroke="rgb(0, 0, 0)" stroke-linejoin="round" d=" M 879.662, 577.524 874.870, 573.814 870.078, 570.103 865.286, 566.393 857.380, 560.270 855.703, 558.972 852.268, 556.312 850.911, 555.261 849.575, 554.227 847.361, 552.512 839.454, 546.390 832.259, 540.819 832.259, 530.819 832.259, 520.819 832.259, 520.275 832.259, 519.052 " />
            <path fill="none" stroke-width="3.0" stroke-linecap="butt" stroke-opacity="1.0" stroke="rgb(0, 0, 0)" stroke-linejoin="round" d=" M 960.258, 378.337 960.258, 377.204 960.258, 367.204 960.258, 357.204 960.258, 347.204 960.258, 337.204 960.258, 327.204 960.258, 326.038 960.258, 322.537 960.258, 321.194 960.258, 311.194 960.258, 301.194 960.258, 299.747 961.949, 295.931 966.557, 287.057 967.047, 286.114 970.913, 276.892 974.780, 267.670 978.646, 258.447 982.512, 249.225 986.379, 240.003 988.194, 235.672 996.227, 229.716 1004.261, 223.761 1012.294, 217.805 1016.942, 214.359 1024.975, 208.404 1033.008, 202.448 1033.949, 201.751 1033.949, 201.751 1036.874, 199.582 1038.326, 198.505 1040.593, 200.218 1040.593, 200.218 1043.223, 202.205 1043.519, 202.428 1050.163, 207.448 1058.142, 213.475 1058.791, 213.965 1061.550, 216.050 1063.452, 217.049 1068.340, 219.618 1068.340, 220.961 1068.340, 230.961 1068.340, 240.961 1068.340, 242.408 1068.340, 252.408 1068.340, 262.408 1068.340, 272.408 1068.340, 282.408 1068.340, 288.332 1068.340, 294.707 1068.340, 297.998 1068.340, 298.208 " />
            <path fill="none" stroke-width="3.0" stroke-linecap="butt" stroke-opacity="1.0" stroke="rgb(0, 0, 0)" stroke-linejoin="round" d=" M 1062.329, 356.409 1063.452, 355.576 1063.539, 355.512 1067.882, 352.292 1068.340, 351.953 1068.340, 356.707 1068.340, 357.559 1068.340, 359.562 1068.340, 369.562 1068.340, 379.562 1068.340, 389.562 1068.340, 391.530 1066.649, 395.346 1063.452, 402.561 1059.525, 411.424 1055.475, 420.567 1051.424, 429.710 1047.373, 438.853 1043.322, 447.996 1039.658, 456.266 1036.514, 458.597 1035.106, 459.641 1027.073, 465.596 1019.040, 471.552 1013.815, 475.425 1005.782, 481.381 1000.798, 485.076 992.765, 491.032 988.940, 493.868 987.249, 492.559 979.342, 486.436 971.436, 480.314 963.529, 474.191 960.258, 471.659 960.258, 461.659 960.258, 458.394 960.258, 457.667 960.258, 447.667 960.258, 445.196 960.258, 437.908 960.258, 434.936 960.258, 432.726 960.258, 432.082 964.102, 429.232 964.954, 428.600 964.954, 428.600 965.734, 428.022 966.467, 427.479 966.562, 427.408 966.562, 427.134 966.562, 423.679 966.562, 422.427 " />
            <path fill="none" stroke-width="3.0" stroke-linecap="butt" stroke-opacity="1.0" stroke="rgb(0, 0, 0)" stroke-linejoin="round" d=" M 960.258, 426.781 960.258, 425.885 960.258, 422.635 960.258, 422.412 961.212, 421.705 962.566, 420.701 963.124, 420.288 964.648, 419.158 964.648, 419.158 965.734, 418.352 966.362, 417.887 966.495, 417.788 966.562, 417.739 966.562, 417.471 966.562, 416.529 966.562, 412.758 " />
            <path fill="none" stroke-width="3.0" stroke-linecap="butt" stroke-opacity="1.0" stroke="rgb(0, 0, 0)" stroke-linejoin="round" d=" M 1068.340, 346.652 1068.340, 346.429 1068.340, 342.283 1063.452, 345.906 1062.864, 346.343 1062.329, 346.739 " />
            <path fill="none" stroke-width="3.0" stroke-linecap="butt" stroke-opacity="1.0" stroke="rgb(0, 0, 0)" stroke-linejoin="round" d=" M 941.509, 394.644 941.509, 393.428 941.509, 390.276 942.745, 389.359 950.348, 383.723 955.193, 380.130 " />
            <path fill="none" stroke-width="3.0" stroke-linecap="butt" stroke-opacity="1.0" stroke="rgb(0, 0, 0)" stroke-linejoin="round" d=" M 941.509, 404.314 941.509, 403.098 941.509, 399.945 942.745, 399.029 950.348, 393.393 955.194, 389.800 " />
            <path fill="none" stroke-width="3.0" stroke-linecap="butt" stroke-opacity="1.0" stroke="rgb(0, 0, 0)" stroke-linejoin="round" d=" M 1073.800, 325.671 1073.800, 322.518 1073.800, 321.302 1072.993, 321.901 1070.625, 323.656 1070.096, 324.048 1069.815, 324.257 " />
            <path fill="none" stroke-width="3.0" stroke-linecap="butt" stroke-opacity="1.0" stroke="rgb(0, 0, 0)" stroke-linejoin="round" d=" M 1073.800, 335.340 1073.800, 332.188 1073.800, 330.972 1072.990, 331.572 1070.623, 333.327 1070.096, 333.718 1069.815, 333.927 " />
            <path fill="none" stroke-width="3.0" stroke-linecap="butt" stroke-opacity="1.0" stroke="rgb(0, 0, 0)" stroke-linejoin="round" d=" M 955.193, 409.235 952.342, 411.349 951.230, 412.173 950.348, 412.827 947.691, 414.797 947.634, 414.839 943.321, 418.037 942.747, 418.462 941.509, 419.380 941.509, 422.532 941.509, 423.748 " />
            <path fill="none" stroke-width="3.0" stroke-linecap="butt" stroke-opacity="1.0" stroke="rgb(0, 0, 0)" stroke-linejoin="round" d=" M 1068.340, 336.982 1068.340, 336.759 1068.340, 336.758 1068.340, 332.613 1064.961, 335.118 1063.452, 336.237 1062.864, 336.673 1062.329, 337.070 " />
            <path fill="none" stroke-width="3.0" stroke-linecap="butt" stroke-opacity="1.0" stroke="rgb(0, 0, 0)" stroke-linejoin="round" d=" M 1073.800, 296.567 1073.800, 293.414 1073.800, 292.198 1072.999, 292.792 1070.631, 294.548 1070.096, 294.944 1069.815, 295.153 " />
            <path fill="none" stroke-width="3.0" stroke-linecap="butt" stroke-opacity="1.0" stroke="rgb(0, 0, 0)" stroke-linejoin="round" d=" M 966.562, 383.654 966.562, 388.376 966.562, 388.634 962.566, 391.597 961.073, 392.704 960.844, 392.874 960.838, 392.879 960.258, 393.308 960.258, 393.531 960.258, 396.543 960.258, 397.677 " />
            <path fill="none" stroke-width="3.0" stroke-linecap="butt" stroke-opacity="1.0" stroke="rgb(0, 0, 0)" stroke-linejoin="round" d=" M 955.194, 418.904 947.160, 424.860 941.509, 429.049 941.509, 432.202 941.509, 433.418 " />
            <path fill="none" stroke-width="3.0" stroke-linecap="butt" stroke-opacity="1.0" stroke="rgb(0, 0, 0)" stroke-linejoin="round" d=" M 1069.815, 343.596 1070.096, 343.387 1072.556, 341.564 1072.988, 341.243 1073.800, 340.641 1073.800, 344.821 1073.800, 354.821 1073.800, 359.774 1073.800, 365.042 1073.800, 375.042 1073.800, 385.042 1073.800, 395.042 1073.800, 400.193 1072.874, 402.282 1070.096, 408.553 1069.352, 410.232 1065.302, 419.375 1061.251, 428.518 1057.200, 437.661 1053.149, 446.803 1049.099, 455.946 1045.048, 465.089 1040.997, 474.232 1039.674, 477.218 1032.711, 482.380 1030.828, 483.776 1025.952, 487.391 1021.275, 490.858 1013.242, 496.814 1005.209, 502.770 997.176, 508.725 989.143, 514.681 981.110, 520.636 975.635, 524.695 974.627, 523.915 973.187, 522.800 973.129, 522.755 971.187, 521.251 968.337, 519.045 963.546, 515.334 958.754, 511.624 950.847, 505.501 942.940, 499.379 941.509, 498.271 941.509, 488.271 941.509, 480.226 941.509, 479.100 941.509, 469.100 941.509, 459.100 941.509, 449.100 941.509, 438.719 943.744, 437.062 951.777, 431.107 955.193, 428.574 " />
            <path fill="none" stroke-width="3.0" stroke-linecap="butt" stroke-opacity="1.0" stroke="rgb(0, 0, 0)" stroke-linejoin="round" d=" M 955.194, 399.470 950.348, 403.062 942.991, 408.517 942.746, 408.698 941.509, 409.615 941.509, 412.836 941.509, 414.079 " />
            <path fill="none" stroke-width="3.0" stroke-linecap="butt" stroke-opacity="1.0" stroke="rgb(0, 0, 0)" stroke-linejoin="round" d=" M 860.721, 352.637 860.721, 362.637 860.721, 372.637 860.721, 382.637 860.721, 384.636 860.721, 384.749 860.721, 392.074 860.721, 397.500 860.721, 398.371 860.721, 408.371 860.721, 414.716 860.721, 415.848 860.720, 425.848 860.720, 430.423 857.372, 432.905 855.118, 434.577 852.192, 436.745 852.192, 446.745 852.192, 456.745 852.192, 459.803 852.192, 469.803 852.192, 479.803 852.192, 481.340 852.192, 491.340 852.192, 501.340 852.192, 510.164 852.192, 515.269 852.192, 517.245 852.192, 527.245 852.192, 537.245 852.192, 547.245 852.192, 547.830 " />
            <path fill="none" stroke-width="3.0" stroke-linecap="butt" stroke-opacity="1.0" stroke="rgb(0, 0, 0)" stroke-linejoin="round" d=" M 858.837, 550.167 858.837, 540.167 858.837, 530.167 858.837, 522.169 858.837, 516.643 858.837, 512.501 858.837, 509.380 858.837, 508.534 858.837, 498.534 858.837, 495.642 858.837, 485.642 858.837, 475.642 858.837, 469.560 858.837, 459.560 858.837, 455.253 858.837, 454.784 858.837, 444.784 858.837, 439.082 861.762, 436.914 865.406, 434.212 867.365, 432.760 867.365, 422.760 867.365, 412.715 867.365, 409.401 867.365, 405.980 867.365, 405.619 867.365, 400.708 867.365, 390.708 867.365, 387.086 867.365, 377.086 867.365, 367.086 867.365, 357.086 867.365, 354.974 " />
            <path fill="none" stroke-width="3.0" stroke-linecap="butt" stroke-opacity="1.0" stroke="rgb(0, 0, 0)" stroke-linejoin="round" d=" M 852.192, 547.830 860.099, 553.952 861.104, 554.730 861.260, 554.852 869.167, 560.974 869.508, 561.238 870.844, 562.272 875.636, 565.983 880.427, 569.693 885.219, 573.404 890.011, 577.114 891.914, 578.588 894.803, 580.825 898.566, 583.739 899.595, 584.535 " />
            <path fill="none" stroke-width="3.0" stroke-linecap="butt" stroke-opacity="1.0" stroke="rgb(0, 0, 0)" stroke-linejoin="round" d=" M 906.239, 586.872 901.447, 583.162 900.418, 582.365 896.655, 579.451 891.925, 575.788 891.914, 575.780 891.863, 575.741 887.072, 572.030 882.280, 568.320 877.488, 564.609 876.152, 563.575 872.696, 560.899 864.790, 554.777 864.049, 554.203 863.113, 553.478 858.837, 550.167 " />
            <path fill="none" stroke-width="3.0" stroke-linecap="butt" stroke-opacity="1.0" stroke="rgb(0, 0, 0)" stroke-linejoin="round" d=" M 966.562, 373.984 966.562, 378.706 966.562, 378.965 962.566, 381.928 961.073, 383.034 960.844, 383.204 960.838, 383.209 960.258, 383.638 960.258, 383.861 960.258, 386.026 960.258, 386.873 960.258, 388.007 " />
            <path fill="none" stroke-width="3.0" stroke-linecap="butt" stroke-opacity="1.0" stroke="rgb(0, 0, 0)" stroke-linejoin="round" d=" M 1073.800, 306.236 1073.800, 303.084 1073.800, 301.868 1072.997, 302.463 1070.629, 304.219 1070.096, 304.613 1069.815, 304.822 " />
            <path fill="none" stroke-width="3.0" stroke-linecap="butt" stroke-opacity="1.0" stroke="rgb(0, 0, 0)" stroke-linejoin="round" d=" M 1073.800, 316.001 1073.800, 312.780 1073.800, 311.537 1072.995, 312.134 1070.627, 313.890 1070.096, 314.283 1069.815, 314.492 " />
            <path fill="none" stroke-width="3.0" stroke-linecap="butt" stroke-opacity="1.0" stroke="rgb(0, 0, 0)" stroke-linejoin="round" d=" M 941.509, 384.975 941.509, 374.979 941.509, 364.979 941.509, 356.809 941.509, 346.809 941.509, 336.809 941.509, 334.614 941.509, 324.614 941.509, 314.614 941.509, 313.526 941.509, 309.992 941.509, 299.992 941.509, 289.992 941.509, 286.410 945.560, 277.267 945.957, 276.371 950.008, 267.228 954.058, 258.086 958.109, 248.943 962.160, 239.800 966.211, 230.657 967.200, 228.424 970.692, 220.541 972.767, 215.857 975.635, 209.385 983.668, 203.429 984.481, 202.827 992.514, 196.871 1000.547, 190.916 1008.580, 184.960 1016.613, 179.004 1024.647, 173.049 1027.175, 171.174 1030.438, 168.755 1030.742, 168.530 1033.948, 166.152 1033.948, 166.152 1036.875, 163.983 1039.066, 162.359 1039.674, 161.907 1043.223, 164.656 1043.519, 164.884 1044.122, 165.351 1048.911, 169.059 1049.147, 169.242 1050.163, 170.029 1058.070, 176.152 1059.525, 177.278 1063.452, 180.319 1070.096, 185.464 1073.021, 187.729 1073.800, 188.332 1073.800, 191.866 1073.800, 201.866 1073.800, 211.866 1073.800, 215.448 1073.800, 225.448 1073.800, 235.448 1073.800, 237.370 1073.800, 247.370 1073.800, 257.370 1073.800, 267.370 1073.800, 277.370 1073.800, 280.730 1073.800, 286.897 " />
            <path fill="none" stroke-width="3.0" stroke-linecap="butt" stroke-opacity="1.0" stroke="rgb(0, 0, 0)" stroke-linejoin="round" d=" M 966.562, 393.323 966.562, 398.282 966.562, 398.304 962.479, 401.332 961.071, 402.375 960.938, 402.474 960.258, 402.978 960.258, 403.205 960.258, 405.514 960.258, 406.355 960.258, 407.442 " />
            <path fill="none" stroke-width="3.0" stroke-linecap="butt" stroke-opacity="1.0" stroke="rgb(0, 0, 0)" stroke-linejoin="round" d=" M 781.525, 518.810 781.525, 508.810 781.525, 506.277 781.525, 496.277 781.525, 486.277 781.525, 482.663 781.525, 472.663 781.525, 462.663 781.525, 452.663 781.525, 442.663 781.525, 432.663 781.525, 422.663 781.525, 412.663 781.525, 402.279 781.525, 392.279 781.525, 382.279 781.525, 372.279 781.525, 362.279 781.525, 352.279 781.525, 342.279 781.525, 332.279 781.525, 322.279 781.525, 312.279 781.525, 302.279 781.525, 292.279 781.525, 282.279 781.525, 272.279 781.525, 267.195 781.525, 257.195 781.525, 247.769 781.525, 237.769 781.525, 227.769 781.525, 217.769 781.525, 212.570 785.576, 203.428 789.626, 194.285 793.677, 185.142 797.792, 175.855 801.842, 166.712 805.893, 157.569 809.944, 148.426 813.995, 139.283 818.045, 130.141 822.096, 120.998 826.147, 111.855 827.510, 108.779 835.543, 102.823 843.576, 96.867 851.609, 90.912 859.642, 84.956 861.515, 83.568 869.548, 77.612 877.581, 71.657 885.614, 65.701 893.647, 59.746 901.680, 53.790 909.714, 47.834 917.747, 41.879 922.028, 38.705 " />
            <path fill="none" stroke-width="3.0" stroke-linecap="butt" stroke-opacity="1.0" stroke="rgb(0, 0, 0)" stroke-linejoin="round" d=" M 812.327, 533.808 820.233, 539.930 828.140, 546.053 836.047, 552.175 843.433, 557.895 845.353, 559.382 850.145, 563.092 858.052, 569.214 859.729, 570.513 " />
            <path fill="none" stroke-width="3.0" stroke-linecap="butt" stroke-opacity="1.0" stroke="rgb(0, 0, 0)" stroke-linejoin="round" d=" M 866.373, 572.850 861.581, 569.139 853.675, 563.017 851.998, 561.719 847.206, 558.008 846.378, 557.367 838.471, 551.245 830.565, 545.122 822.658, 539.000 818.971, 536.145 818.971, 526.145 818.971, 520.257 818.971, 510.257 818.971, 506.476 818.971, 503.584 818.971, 498.479 " />
            <path fill="none" stroke-width="3.0" stroke-linecap="butt" stroke-opacity="1.0" stroke="rgb(0, 0, 0)" stroke-linejoin="round" d=" M 853.084, 568.176 848.293, 564.465 843.501, 560.755 840.488, 558.422 832.581, 552.300 824.674, 546.177 816.768, 540.055 808.861, 533.932 805.682, 531.471 805.682, 521.462 805.682, 511.462 805.682, 501.462 805.682, 493.805 805.682, 483.805 805.682, 473.805 805.682, 463.805 805.682, 456.369 805.682, 446.369 805.682, 436.369 805.682, 426.369 805.682, 416.369 805.682, 406.369 805.682, 396.369 805.682, 386.369 805.682, 376.369 805.682, 366.369 805.682, 356.369 805.682, 350.767 805.682, 340.767 805.682, 330.767 805.682, 320.767 805.682, 310.767 805.682, 306.351 805.682, 296.351 805.682, 292.937 805.682, 282.937 805.682, 278.337 805.682, 268.337 805.682, 263.418 805.682, 253.418 805.682, 243.418 805.682, 233.418 805.682, 223.418 805.682, 222.193 809.733, 213.050 813.784, 203.908 817.835, 194.765 821.885, 185.622 825.936, 176.479 829.987, 167.336 834.038, 158.193 838.088, 149.051 840.488, 143.634 844.539, 134.491 848.590, 125.348 852.640, 116.205 853.085, 115.202 861.118, 109.247 869.151, 103.291 877.184, 97.336 878.735, 96.186 886.768, 90.230 894.801, 84.275 902.834, 78.319 910.867, 72.364 918.900, 66.408 926.933, 60.453 934.966, 54.497 943.000, 48.541 945.902, 46.389 949.607, 43.642 " />
            <path fill="none" stroke-width="3.0" stroke-linecap="butt" stroke-opacity="1.0" stroke="rgb(0, 0, 0)" stroke-linejoin="round" d=" M 846.440, 565.839 841.648, 562.128 837.542, 558.949 829.635, 552.826 821.729, 546.704 813.822, 540.581 805.915, 534.459 799.038, 529.134 " />
            <path fill="none" stroke-width="3.0" stroke-linecap="butt" stroke-opacity="1.0" stroke="rgb(0, 0, 0)" stroke-linejoin="round" d=" M 825.615, 338.043 825.615, 328.043 825.615, 318.043 825.615, 312.811 825.615, 302.811 825.615, 292.811 825.615, 285.348 825.615, 275.348 825.615, 265.348 825.615, 257.284 825.615, 247.284 825.615, 237.284 825.615, 229.204 829.666, 220.062 833.717, 210.919 837.768, 201.776 841.818, 192.633 845.869, 183.490 849.323, 175.693 853.374, 166.550 857.425, 157.408 861.476, 148.265 865.526, 139.122 869.577, 129.979 873.018, 122.213 881.051, 116.258 889.084, 110.302 897.117, 104.347 905.150, 98.391 913.183, 92.435 921.265, 86.444 929.298, 80.488 937.331, 74.533 938.137, 73.935 946.170, 67.980 954.203, 62.024 960.278, 57.521 965.835, 53.400 967.688, 52.027 969.540, 50.653 " />
            <path fill="none" stroke-width="3.0" stroke-linecap="butt" stroke-opacity="1.0" stroke="rgb(0, 0, 0)" stroke-linejoin="round" d=" M 825.615, 338.043 825.615, 348.043 825.615, 358.043 825.615, 368.043 825.615, 378.043 825.615, 388.043 825.615, 398.043 825.615, 408.043 825.615, 418.043 825.615, 421.589 825.615, 430.399 " />
            <path fill="none" stroke-width="3.0" stroke-linecap="butt" stroke-opacity="1.0" stroke="rgb(0, 0, 0)" stroke-linejoin="round" d=" M 1016.050, 67.013 1014.955, 67.824 1014.198, 68.386 1012.345, 69.759 1010.493, 71.133 1008.640, 72.506 1006.788, 73.880 1004.935, 75.253 1003.083, 76.626 1001.230, 78.000 999.378, 79.373 994.853, 82.728 986.820, 88.684 984.647, 90.294 976.614, 96.250 974.771, 97.616 974.771, 97.616 966.738, 103.572 958.705, 109.527 950.672, 115.483 942.638, 121.439 934.605, 127.394 926.572, 133.350 919.528, 138.572 917.689, 142.722 913.639, 151.865 909.588, 161.008 909.118, 162.069 905.067, 171.212 901.016, 180.355 896.966, 189.497 892.915, 198.640 888.864, 207.783 884.813, 216.926 880.763, 226.069 876.712, 235.212 872.661, 244.354 872.126, 245.563 872.126, 253.835 872.126, 263.835 872.126, 270.232 872.126, 271.078 872.126, 281.078 872.126, 283.229 872.126, 293.229 872.126, 303.229 872.126, 313.229 872.126, 323.229 872.126, 325.626 872.126, 326.472 872.126, 336.472 872.126, 342.879 872.126, 347.326 872.126, 352.355 872.126, 362.355 872.126, 366.132 872.126, 366.932 872.126, 376.932 872.126, 386.932 872.126, 388.761 872.126, 394.648 872.126, 396.521 872.126, 402.285 872.126, 402.382 872.126, 402.881 872.126, 410.470 872.126, 420.470 872.126, 430.470 872.126, 440.470 872.126, 450.470 872.126, 457.813 872.126, 458.659 872.126, 468.659 872.126, 478.659 872.126, 482.448 872.126, 483.365 872.126, 493.365 872.126, 503.365 872.126, 512.836 872.126, 513.208 872.126, 514.054 872.126, 524.054 872.126, 526.785 872.126, 526.843 872.126, 536.843 872.126, 546.843 872.126, 554.841 876.402, 558.152 881.193, 561.862 882.536, 562.902 885.985, 565.573 889.441, 568.249 890.777, 569.283 891.914, 570.164 893.844, 571.658 895.569, 572.994 900.361, 576.704 904.124, 579.618 905.152, 580.415 909.944, 584.125 916.696, 589.353 919.528, 591.546 " />
            <path fill="none" stroke-width="3.0" stroke-linecap="butt" stroke-opacity="1.0" stroke="rgb(0, 0, 0)" stroke-linejoin="round" d=" M 845.548, 347.300 845.548, 338.338 845.548, 332.684 845.548, 322.684 845.548, 312.684 845.548, 302.684 845.548, 292.359 845.548, 282.359 845.548, 272.359 845.548, 262.359 845.548, 252.359 845.548, 251.151 845.548, 241.151 845.548, 236.215 849.599, 227.073 853.650, 217.930 857.700, 208.787 858.159, 207.753 862.209, 198.610 866.260, 189.467 870.311, 180.324 874.362, 171.181 878.412, 162.038 882.463, 152.895 886.514, 143.753 890.565, 134.610 891.112, 133.374 892.951, 129.224 900.984, 123.269 909.017, 117.313 917.050, 111.358 925.083, 105.402 933.116, 99.446 941.149, 93.491 949.182, 87.535 956.751, 81.924 956.751, 81.924 958.070, 80.946 963.795, 76.702 971.828, 70.746 974.653, 68.652 980.211, 64.532 982.063, 63.158 983.916, 61.785 985.768, 60.411 987.621, 59.038 989.473, 57.664 " />
            <path fill="none" stroke-width="3.0" stroke-linecap="butt" stroke-opacity="1.0" stroke="rgb(0, 0, 0)" stroke-linejoin="round" d=" M 868.111, 439.470 865.481, 441.419 865.481, 451.419 865.481, 455.476 865.481, 456.322 865.481, 466.322 865.481, 476.322 865.481, 486.322 865.481, 496.322 865.481, 501.481 865.481, 501.481 865.481, 509.945 865.481, 510.871 865.481, 511.717 865.481, 514.838 865.481, 516.040 865.481, 519.943 865.481, 524.513 865.481, 529.068 865.481, 529.919 865.481, 539.919 865.481, 549.919 865.481, 551.722 865.481, 552.504 866.994, 553.675 874.549, 559.526 879.341, 563.236 882.796, 565.912 884.132, 566.946 888.924, 570.657 891.914, 572.972 892.397, 573.346 893.716, 574.367 898.508, 578.078 902.271, 580.992 903.299, 581.788 908.091, 585.499 912.550, 588.951 912.883, 589.209 " />
            <path fill="none" stroke-width="3.0" stroke-linecap="butt" stroke-opacity="1.0" stroke="rgb(0, 0, 0)" stroke-linejoin="round" d=" M 852.192, 349.637 852.192, 342.374 852.192, 340.315 852.192, 339.309 852.193, 329.309 852.193, 323.192 852.193, 313.192 852.193, 303.192 852.193, 294.696 852.193, 284.696 852.193, 278.227 852.193, 268.227 852.193, 258.227 852.193, 249.107 852.193, 239.107 852.193, 238.552 856.243, 229.410 860.294, 220.267 861.104, 218.439 865.155, 209.296 869.205, 200.153 873.256, 191.010 877.307, 181.868 881.357, 172.725 885.408, 163.582 889.459, 154.439 893.510, 145.296 897.756, 135.711 899.595, 131.561 907.628, 125.606 915.661, 119.650 923.694, 113.695 931.727, 107.739 939.760, 101.783 947.794, 95.828 955.827, 89.872 961.256, 85.847 961.256, 85.847 964.714, 83.283 972.747, 77.328 977.972, 73.454 979.445, 72.362 985.002, 68.242 986.855, 66.869 988.707, 65.495 990.560, 64.122 992.412, 62.748 994.265, 61.375 996.117, 60.001 " />
            <path fill="none" stroke-width="3.0" stroke-linecap="butt" stroke-opacity="1.0" stroke="rgb(0, 0, 0)" stroke-linejoin="round" d=" M 858.837, 351.974 858.837, 345.933 858.837, 344.711 858.837, 342.652 858.837, 332.652 858.837, 322.652 858.837, 321.798 858.837, 320.952 858.837, 319.840 858.837, 309.840 858.837, 299.840 858.837, 297.033 858.837, 287.401 858.837, 277.401 858.837, 267.671 858.837, 267.202 858.837, 257.202 858.837, 247.063 858.837, 240.889 862.888, 231.747 864.049, 229.125 868.100, 219.982 872.150, 210.840 876.201, 201.697 880.252, 192.554 884.303, 183.411 888.353, 174.268 892.404, 165.125 896.455, 155.983 900.505, 146.840 904.401, 138.048 906.239, 133.898 914.272, 127.943 922.305, 121.987 930.338, 116.032 938.372, 110.076 946.405, 104.120 954.438, 98.165 962.471, 92.209 965.761, 89.770 965.761, 89.770 971.358, 85.620 979.391, 79.665 987.424, 73.709 989.794, 71.952 991.647, 70.579 992.149, 70.207 993.499, 69.206 995.352, 67.832 997.204, 66.459 999.057, 65.085 1000.909, 63.712 1002.762, 62.339 " />
            <path fill="none" stroke-width="3.0" stroke-linecap="butt" stroke-opacity="1.0" stroke="rgb(0, 0, 0)" stroke-linejoin="round" d=" M 1009.406, 64.676 1007.554, 66.049 1006.326, 66.959 1005.701, 67.422 1003.849, 68.796 1001.996, 70.169 1000.143, 71.543 998.291, 72.916 996.438, 74.289 994.586, 75.663 986.553, 81.618 978.520, 87.574 978.003, 87.957 970.266, 93.693 970.266, 93.693 962.233, 99.649 954.200, 105.604 946.167, 111.560 938.133, 117.516 930.100, 123.471 922.067, 129.427 914.034, 135.382 912.883, 136.235 911.045, 140.385 906.994, 149.528 902.943, 158.671 898.893, 167.814 894.842, 176.957 890.791, 186.099 886.740, 195.242 882.690, 204.385 878.639, 213.528 874.588, 222.671 870.538, 231.814 866.994, 239.812 865.481, 243.227 865.481, 245.018 865.481, 255.018 865.481, 265.018 865.481, 267.895 865.481, 268.741 865.481, 278.741 865.481, 288.741 865.481, 296.574 865.481, 299.370 865.481, 309.370 865.481, 319.370 865.481, 323.289 865.481, 324.135 865.481, 334.135 865.481, 344.135 865.481, 344.989 865.481, 347.048 865.481, 352.558 865.481, 354.311 " />
            <path fill="none" stroke-width="3.0" stroke-linecap="butt" stroke-opacity="1.0" stroke="rgb(0, 0, 0)" stroke-linejoin="round" d=" M 1033.774, 519.274 1030.723, 521.536 1022.690, 527.492 1014.656, 533.447 1006.623, 539.403 998.590, 545.358 990.557, 551.314 982.524, 557.269 974.491, 563.225 972.817, 564.466 964.784, 570.421 956.751, 576.377 948.718, 582.332 941.669, 587.558 938.262, 584.920 936.319, 583.415 933.470, 581.209 930.638, 579.016 923.887, 573.788 920.733, 571.346 919.095, 570.078 914.303, 566.367 911.734, 564.378 911.371, 564.097 909.511, 562.657 907.787, 561.322 904.727, 558.952 904.720, 558.947 899.928, 555.236 898.083, 553.807 897.508, 553.362 896.073, 552.251 896.073, 551.710 896.073, 550.831 896.073, 547.148 896.073, 542.585 896.073, 542.418 896.073, 538.845 896.073, 538.325 896.073, 536.157 896.073, 526.157 896.073, 523.264 896.073, 513.264 896.073, 507.684 896.073, 497.684 896.073, 492.103 896.073, 482.103 896.073, 476.523 896.073, 466.523 896.073, 460.942 896.073, 450.942 896.073, 440.942 896.073, 438.462 896.073, 428.462 896.073, 418.462 896.073, 408.462 896.073, 398.462 896.073, 388.462 896.073, 380.721 896.073, 370.721 896.073, 360.721 896.073, 350.721 896.073, 340.721 896.073, 330.721 896.073, 320.721 896.073, 310.721 896.073, 300.721 896.073, 292.454 896.073, 282.454 896.073, 272.454 896.073, 268.667 896.073, 258.667 896.073, 256.222 900.124, 247.080 904.174, 237.937 908.225, 228.794 912.276, 219.651 916.327, 210.508 920.377, 201.365 924.428, 192.223 926.009, 188.655 930.060, 179.512 934.110, 170.369 938.161, 161.226 941.670, 153.307 949.703, 147.351 957.736, 141.396 965.769, 135.440 973.802, 129.484 981.835, 123.529 989.868, 117.573 997.901, 111.618 1002.626, 108.115 1009.914, 102.712 1012.762, 100.601 1020.795, 94.645 1027.339, 89.793 1029.192, 88.420 1031.044, 87.046 1032.897, 85.673 1033.774, 85.023 1041.681, 91.145 1049.588, 97.267 1057.494, 103.390 1059.526, 104.963 1063.452, 108.003 1063.710, 108.203 1070.097, 113.148 1076.741, 118.293 1079.371, 120.329 " />
            <path fill="none" stroke-width="3.0" stroke-linecap="butt" stroke-opacity="1.0" stroke="rgb(0, 0, 0)" stroke-linejoin="round" d=" M 1022.694, 69.350 1020.842, 70.723 1019.747, 71.535 1018.990, 72.096 1017.137, 73.470 1015.285, 74.843 1013.432, 76.217 1011.580, 77.590 1009.727, 78.963 1007.875, 80.337 1006.022, 81.710 997.989, 87.666 991.291, 92.631 983.258, 98.587 979.276, 101.539 979.276, 101.539 971.243, 107.495 966.417, 111.072 958.384, 117.028 950.351, 122.983 942.318, 128.939 934.285, 134.895 926.172, 140.909 924.334, 145.059 920.283, 154.202 916.232, 163.345 912.182, 172.488 908.131, 181.630 904.080, 190.773 900.029, 199.916 898.534, 203.290 894.484, 212.433 890.433, 221.576 886.382, 230.719 882.332, 239.862 878.770, 247.900 878.770, 257.900 878.770, 267.900 878.770, 269.861 878.770, 272.569 878.770, 272.617 878.770, 282.617 878.770, 285.566 878.770, 295.566 878.770, 305.566 878.770, 315.566 878.770, 325.566 878.770, 335.566 878.770, 345.566 878.770, 355.566 878.770, 365.566 878.770, 375.566 878.770, 379.278 878.770, 389.278 878.770, 399.278 878.770, 403.750 878.770, 413.750 878.770, 423.750 878.770, 433.750 878.770, 443.929 878.770, 453.929 878.770, 460.150 878.770, 460.198 878.770, 470.198 878.770, 480.198 878.770, 490.198 878.770, 495.594 878.770, 505.594 878.770, 515.594 878.770, 520.065 878.770, 529.180 878.770, 533.743 878.770, 543.743 878.770, 553.743 878.770, 556.396 878.770, 557.178 883.046, 560.489 887.838, 564.199 891.914, 567.356 892.630, 567.910 895.697, 570.285 896.086, 570.586 897.421, 571.620 902.213, 575.331 905.976, 578.245 906.408, 578.579 907.005, 579.041 911.797, 582.752 918.548, 587.979 921.380, 590.172 926.172, 593.883 " />
            <path fill="none" stroke-width="3.0" stroke-linecap="butt" stroke-opacity="1.0" stroke="rgb(0, 0, 0)" stroke-linejoin="round" d=" M 1029.339, 71.687 1027.486, 73.060 1025.634, 74.434 1024.539, 75.245 1023.781, 75.807 1021.929, 77.180 1020.076, 78.554 1018.224, 79.927 1016.371, 81.300 1014.519, 82.674 1012.666, 84.047 1004.633, 90.003 997.935, 94.968 989.902, 100.924 983.781, 105.462 983.781, 105.462 975.748, 111.418 967.714, 117.374 959.681, 123.329 951.648, 129.285 943.615, 135.240 937.982, 139.416 932.817, 143.246 929.018, 151.819 924.968, 160.962 920.917, 170.105 916.866, 179.248 912.815, 188.391 908.765, 197.534 904.714, 206.676 900.663, 215.819 896.612, 224.962 892.562, 234.105 888.511, 243.248 887.951, 244.511 885.414, 250.237 885.414, 260.237 885.414, 270.237 885.414, 280.237 885.414, 285.887 885.414, 287.903 885.414, 297.903 885.414, 307.903 885.414, 317.903 885.414, 327.903 885.414, 337.903 885.414, 347.903 885.414, 357.903 885.414, 367.903 885.414, 377.903 885.414, 387.903 885.414, 397.903 885.414, 407.903 885.414, 417.903 885.414, 427.903 885.414, 437.903 885.414, 447.903 885.414, 457.903 885.414, 467.903 885.414, 477.903 885.414, 487.903 885.414, 497.903 885.414, 507.903 885.414, 517.903 885.414, 525.089 885.414, 531.517 885.414, 536.079 885.414, 540.642 885.414, 544.979 885.414, 551.470 885.414, 558.733 885.414, 559.515 889.690, 562.826 891.914, 564.548 894.482, 566.536 897.549, 568.912 898.083, 569.324 899.274, 570.247 902.730, 572.923 904.066, 573.957 907.829, 576.871 908.857, 577.668 913.649, 581.378 920.401, 586.606 923.233, 588.799 928.024, 592.509 930.279, 594.255 932.816, 596.220 " />
            <path fill="none" stroke-width="3.0" stroke-linecap="butt" stroke-opacity="1.0" stroke="rgb(0, 0, 0)" stroke-linejoin="round" d=" M 1081.307, 133.925 1079.371, 132.426 1076.741, 130.389 1070.097, 125.244 1063.452, 120.099 1059.525, 117.059 1051.619, 110.936 1050.164, 109.810 1047.282, 107.578 1043.520, 104.665 1037.828, 100.258 1036.875, 100.964 1028.842, 106.920 1027.992, 107.550 1025.757, 109.207 1021.229, 112.564 1013.195, 118.520 1005.162, 124.475 997.129, 130.431 989.096, 136.387 981.063, 142.342 973.030, 148.298 970.154, 150.430 962.121, 156.385 954.088, 162.341 950.904, 164.701 950.613, 165.360 946.562, 174.502 945.822, 176.173 944.319, 179.565 940.268, 188.708 936.218, 197.851 932.167, 206.993 929.811, 212.311 925.760, 221.454 921.709, 230.597 917.659, 239.740 916.878, 241.501 912.827, 250.644 908.777, 259.787 907.425, 262.838 907.425, 272.838 907.425, 282.838 907.425, 289.875 907.425, 297.386 907.425, 307.386 907.425, 317.386 907.425, 327.386 907.425, 333.956 907.425, 343.956 907.425, 346.960 907.425, 356.960 907.425, 366.960 907.425, 376.960 907.425, 386.960 907.425, 396.960 907.425, 406.960 907.425, 416.960 907.425, 426.960 907.425, 430.046 907.425, 440.046 907.425, 450.046 907.425, 452.526 907.425, 462.526 907.425, 468.106 907.425, 478.106 907.425, 483.687 907.425, 489.164 907.425, 499.164 907.425, 499.268 907.425, 509.268 907.425, 514.848 907.425, 524.848 907.425, 530.429 907.425, 532.192 907.425, 534.001 907.425, 542.317 907.425, 543.329 907.659, 543.511 909.193, 544.699 917.100, 550.821 925.006, 556.944 925.989, 557.704 926.046, 557.749 930.216, 560.978 930.780, 561.415 935.572, 565.125 936.319, 565.704 941.450, 569.677 942.323, 570.353 945.156, 572.546 949.948, 576.256 950.904, 576.997 958.937, 571.041 966.970, 565.086 975.003, 559.130 983.037, 553.174 991.070, 547.219 999.103, 541.263 1007.136, 535.308 1015.169, 529.352 1018.578, 526.825 1026.611, 520.870 1033.174, 516.004 1036.225, 513.742 1037.828, 512.553 " />
            <path fill="none" stroke-width="3.0" stroke-linecap="butt" stroke-opacity="1.0" stroke="rgb(0, 0, 0)" stroke-linejoin="round" d=" M 1062.329, 327.305 1062.864, 326.908 1063.452, 326.472 1064.961, 325.353 1067.452, 323.506 1067.453, 323.506 1068.340, 322.849 1068.340, 327.085 1068.340, 327.091 1068.340, 327.312 " />
            <path fill="none" stroke-width="3.0" stroke-linecap="butt" stroke-opacity="1.0" stroke="rgb(0, 0, 0)" stroke-linejoin="round" d=" M 1062.329, 317.635 1062.864, 317.239 1063.452, 316.802 1067.457, 313.833 1067.457, 313.833 1067.458, 313.832 1067.458, 313.832 1068.340, 313.179 1068.340, 317.325 1068.340, 317.427 1068.340, 317.547 " />
            <path fill="none" stroke-width="3.0" stroke-linecap="butt" stroke-opacity="1.0" stroke="rgb(0, 0, 0)" stroke-linejoin="round" d=" M 1062.329, 307.966 1062.864, 307.569 1063.138, 307.365 1063.452, 307.133 1067.462, 304.160 1067.462, 304.160 1068.340, 303.509 1068.340, 307.655 1068.340, 307.665 1068.340, 307.878 " />
            <path fill="none" stroke-width="3.0" stroke-linecap="butt" stroke-opacity="1.0" stroke="rgb(0, 0, 0)" stroke-linejoin="round" d=" M 891.914, 622.911 893.598, 625.073 896.775, 626.742 897.840, 627.117 902.025, 628.037 906.582, 628.070 906.843, 628.017 910.817, 627.210 914.084, 625.588 " />
            <path fill="none" stroke-width="3.0" stroke-linecap="butt" stroke-opacity="1.0" stroke="rgb(0, 0, 0)" stroke-linejoin="round" d=" M 914.084, 610.007 910.817, 611.630 906.582, 612.490 902.025, 612.457 901.899, 612.429 897.840, 611.536 896.775, 611.161 893.598, 609.493 891.914, 607.330 " />
            <path fill="none" stroke-width="3.0" stroke-linecap="butt" stroke-opacity="1.0" stroke="rgb(0, 0, 0)" stroke-linejoin="round" d=" M 906.842, 1019.245 907.005, 1020.408 907.865, 1021.489 909.336, 1022.381 " />
            <path fill="none" stroke-width="3.0" stroke-linecap="butt" stroke-opacity="1.0" stroke="rgb(0, 0, 0)" stroke-linejoin="round" d=" M 909.336, 1006.801 907.865, 1005.908 907.005, 1004.828 906.842, 1003.664 " />
            <path fill="none" stroke-width="3.0" stroke-linecap="butt" stroke-opacity="1.0" stroke="rgb(0, 0, 0)" stroke-linejoin="round" d=" M 891.914, 591.750 893.598, 593.912 896.775, 595.581 897.840, 595.955 901.899, 596.848 902.025, 596.876 906.582, 596.909 910.817, 596.049 914.084, 594.427 " />
            <path fill="none" stroke-width="3.0" stroke-linecap="butt" stroke-opacity="1.0" stroke="rgb(0, 0, 0)" stroke-linejoin="round" d=" M 914.084, 625.588 921.391, 620.171 929.424, 614.216 934.452, 610.488 936.255, 608.351 936.319, 606.024 " />
            <path fill="none" stroke-width="3.0" stroke-linecap="butt" stroke-opacity="1.0" stroke="rgb(0, 0, 0)" stroke-linejoin="round" d=" M 914.084, 594.427 918.471, 591.174 " />
            <path fill="none" stroke-width="3.0" stroke-linecap="butt" stroke-opacity="1.0" stroke="rgb(0, 0, 0)" stroke-linejoin="round" d=" M 906.842, 988.084 907.005, 989.247 907.865, 990.328 909.336, 991.220 " />
            <path fill="none" stroke-width="3.0" stroke-linecap="butt" stroke-opacity="1.0" stroke="rgb(0, 0, 0)" stroke-linejoin="round" d=" M 909.336, 975.640 907.865, 974.747 907.005, 973.667 906.842, 972.503 " />
            <path fill="none" stroke-width="3.0" stroke-linecap="butt" stroke-opacity="1.0" stroke="rgb(0, 0, 0)" stroke-linejoin="round" d=" M 909.336, 1022.381 911.275, 1022.998 913.492, 1023.278 915.771, 1023.195 917.887, 1022.756 919.634, 1022.005 920.841, 1021.014 921.390, 1019.882 " />
            <path fill="none" stroke-width="3.0" stroke-linecap="butt" stroke-opacity="1.0" stroke="rgb(0, 0, 0)" stroke-linejoin="round" d=" M 921.390, 1004.301 920.841, 1005.434 919.634, 1006.424 917.887, 1007.175 915.771, 1007.614 913.492, 1007.697 911.275, 1007.417 909.336, 1006.801 " />
            <path fill="none" stroke-width="3.0" stroke-linecap="butt" stroke-opacity="1.0" stroke="rgb(0, 0, 0)" stroke-linejoin="round" d=" M 906.842, 956.923 907.005, 958.086 907.865, 959.167 909.336, 960.059 " />
            <path fill="none" stroke-width="3.0" stroke-linecap="butt" stroke-opacity="1.0" stroke="rgb(0, 0, 0)" stroke-linejoin="round" d=" M 909.336, 944.478 907.865, 943.586 907.005, 942.505 906.842, 941.342 " />
            <path fill="none" stroke-width="3.0" stroke-linecap="butt" stroke-opacity="1.0" stroke="rgb(0, 0, 0)" stroke-linejoin="round" d=" M 909.336, 991.220 911.275, 991.837 913.492, 992.117 915.771, 992.033 917.887, 991.595 919.634, 990.843 920.841, 989.853 921.390, 988.721 " />
            <path fill="none" stroke-width="3.0" stroke-linecap="butt" stroke-opacity="1.0" stroke="rgb(0, 0, 0)" stroke-linejoin="round" d=" M 921.390, 973.140 920.841, 974.273 919.634, 975.263 917.887, 976.014 915.771, 976.453 913.492, 976.536 911.275, 976.256 909.336, 975.640 " />
            <path fill="none" stroke-width="3.0" stroke-linecap="butt" stroke-opacity="1.0" stroke="rgb(0, 0, 0)" stroke-linejoin="round" d=" M 906.842, 925.761 907.005, 926.925 907.865, 928.005 909.336, 928.898 " />
            <path fill="none" stroke-width="3.0" stroke-linecap="butt" stroke-opacity="1.0" stroke="rgb(0, 0, 0)" stroke-linejoin="round" d=" M 909.336, 913.317 907.865, 912.425 907.005, 911.344 906.842, 910.181 " />
            <path fill="none" stroke-width="3.0" stroke-linecap="butt" stroke-opacity="1.0" stroke="rgb(0, 0, 0)" stroke-linejoin="round" d=" M 909.336, 960.059 911.275, 960.675 913.492, 960.956 915.771, 960.872 917.887, 960.433 919.634, 959.682 920.841, 958.692 921.390, 957.560 " />
            <path fill="none" stroke-width="3.0" stroke-linecap="butt" stroke-opacity="1.0" stroke="rgb(0, 0, 0)" stroke-linejoin="round" d=" M 921.390, 941.979 920.841, 943.111 919.634, 944.102 917.887, 944.853 915.771, 945.292 913.492, 945.375 911.275, 945.095 909.336, 944.478 " />
            <path fill="none" stroke-width="3.0" stroke-linecap="butt" stroke-opacity="1.0" stroke="rgb(0, 0, 0)" stroke-linejoin="round" d=" M 906.842, 894.600 907.005, 895.763 907.865, 896.844 909.336, 897.736 " />
            <path fill="none" stroke-width="3.0" stroke-linecap="butt" stroke-opacity="1.0" stroke="rgb(0, 0, 0)" stroke-linejoin="round" d=" M 909.336, 882.156 907.865, 881.264 907.005, 880.183 906.842, 879.019 " />
            <path fill="none" stroke-width="3.0" stroke-linecap="butt" stroke-opacity="1.0" stroke="rgb(0, 0, 0)" stroke-linejoin="round" d=" M 909.336, 928.898 911.275, 929.514 913.492, 929.794 915.771, 929.711 917.887, 929.272 919.634, 928.521 920.841, 927.531 921.390, 926.398 " />
            <path fill="none" stroke-width="3.0" stroke-linecap="butt" stroke-opacity="1.0" stroke="rgb(0, 0, 0)" stroke-linejoin="round" d=" M 921.390, 910.818 920.841, 911.950 919.634, 912.940 917.887, 913.692 915.771, 914.130 913.492, 914.214 911.275, 913.933 909.336, 913.317 " />
            <path fill="none" stroke-width="3.0" stroke-linecap="butt" stroke-opacity="1.0" stroke="rgb(0, 0, 0)" stroke-linejoin="round" d=" M 921.390, 895.237 920.841, 896.369 919.634, 897.360 917.887, 898.111 915.771, 898.550 913.492, 898.633 911.275, 898.353 909.336, 897.736 " />
            <path fill="none" stroke-width="3.0" stroke-linecap="butt" stroke-opacity="1.0" stroke="rgb(0, 0, 0)" stroke-linejoin="round" d=" M 909.336, 882.156 911.275, 882.772 913.492, 883.052 915.771, 882.969 917.887, 882.530 919.634, 881.779 920.841, 880.789 921.390, 879.657 " />
            <path fill="none" stroke-width="3.0" stroke-linecap="butt" stroke-opacity="1.0" stroke="rgb(0, 0, 0)" stroke-linejoin="round" d=" M 921.390, 864.076 920.841, 865.208 919.634, 866.198 917.887, 866.950 915.771, 867.389 913.492, 867.472 911.275, 867.192 909.336, 866.575 907.865, 865.683 " />
            <path fill="none" stroke-width="3.0" stroke-linecap="butt" stroke-opacity="1.0" stroke="rgb(0, 0, 0)" stroke-linejoin="round" d=" M 906.842, 863.439 907.005, 864.602 907.865, 865.683 " />
            <path fill="none" stroke-width="3.0" stroke-linecap="butt" stroke-opacity="1.0" stroke="rgb(0, 0, 0)" stroke-linejoin="round" d=" M 909.336, 850.995 907.865, 850.102 907.005, 849.022 906.842, 847.858 " />
            <path fill="none" stroke-width="3.0" stroke-linecap="butt" stroke-opacity="1.0" stroke="rgb(0, 0, 0)" stroke-linejoin="round" d=" M 909.336, 850.995 911.275, 851.611 913.492, 851.891 915.771, 851.808 917.887, 851.369 919.634, 850.618 920.842, 849.628 921.390, 848.495 " />
            <path fill="none" stroke-width="3.0" stroke-linecap="butt" stroke-opacity="1.0" stroke="rgb(0, 0, 0)" stroke-linejoin="round" d=" M 921.390, 832.915 920.842, 834.047 919.634, 835.037 917.887, 835.788 915.771, 836.227 913.492, 836.311 911.275, 836.030 909.336, 835.414 907.865, 834.522 " />
            <path fill="none" stroke-width="3.0" stroke-linecap="butt" stroke-opacity="1.0" stroke="rgb(0, 0, 0)" stroke-linejoin="round" d=" M 906.842, 832.278 907.005, 833.441 907.865, 834.522 " />
            <path fill="none" stroke-width="3.0" stroke-linecap="butt" stroke-opacity="1.0" stroke="rgb(0, 0, 0)" stroke-linejoin="round" d=" M 909.336, 819.833 907.865, 818.941 907.006, 817.860 906.842, 816.697 " />
            <path fill="none" stroke-width="3.0" stroke-linecap="butt" stroke-opacity="1.0" stroke="rgb(0, 0, 0)" stroke-linejoin="round" d=" M 909.336, 819.833 911.275, 820.450 913.492, 820.730 915.771, 820.647 917.887, 820.208 919.635, 819.457 920.842, 818.466 921.390, 817.334 " />
            <path fill="none" stroke-width="3.0" stroke-linecap="butt" stroke-opacity="1.0" stroke="rgb(0, 0, 0)" stroke-linejoin="round" d=" M 921.390, 801.753 920.842, 802.886 919.635, 803.876 917.887, 804.627 915.771, 805.066 913.492, 805.149 911.275, 804.869 909.336, 804.253 907.865, 803.360 " />
            <path fill="none" stroke-width="3.0" stroke-linecap="butt" stroke-opacity="1.0" stroke="rgb(0, 0, 0)" stroke-linejoin="round" d=" M 906.842, 801.116 907.006, 802.280 907.865, 803.360 " />
            <path fill="none" stroke-width="3.0" stroke-linecap="butt" stroke-opacity="1.0" stroke="rgb(0, 0, 0)" stroke-linejoin="round" d=" M 909.336, 788.672 907.865, 787.780 907.006, 786.699 906.842, 785.536 " />
            <path fill="none" stroke-width="3.0" stroke-linecap="butt" stroke-opacity="1.0" stroke="rgb(0, 0, 0)" stroke-linejoin="round" d=" M 909.336, 788.672 911.275, 789.289 913.493, 789.569 915.771, 789.485 917.887, 789.047 919.635, 788.295 920.842, 787.305 921.390, 786.173 " />
            <path fill="none" stroke-width="3.0" stroke-linecap="butt" stroke-opacity="1.0" stroke="rgb(0, 0, 0)" stroke-linejoin="round" d=" M 921.390, 770.592 920.842, 771.724 919.635, 772.715 917.887, 773.466 915.771, 773.905 913.493, 773.988 911.275, 773.708 909.336, 773.091 907.865, 772.199 " />
            <path fill="none" stroke-width="3.0" stroke-linecap="butt" stroke-opacity="1.0" stroke="rgb(0, 0, 0)" stroke-linejoin="round" d=" M 906.842, 769.955 907.006, 771.118 907.865, 772.199 " />
            <path fill="none" stroke-width="3.0" stroke-linecap="butt" stroke-opacity="1.0" stroke="rgb(0, 0, 0)" stroke-linejoin="round" d=" M 909.336, 757.511 907.865, 756.619 907.006, 755.538 906.842, 754.374 " />
            <path fill="none" stroke-width="3.0" stroke-linecap="butt" stroke-opacity="1.0" stroke="rgb(0, 0, 0)" stroke-linejoin="round" d=" M 909.336, 757.511 911.275, 758.127 913.493, 758.408 915.771, 758.324 917.887, 757.885 919.635, 757.134 920.842, 756.144 921.391, 755.012 " />
            <path fill="none" stroke-width="3.0" stroke-linecap="butt" stroke-opacity="1.0" stroke="rgb(0, 0, 0)" stroke-linejoin="round" d=" M 921.391, 739.431 920.842, 740.563 919.635, 741.553 917.887, 742.305 915.771, 742.744 913.493, 742.827 911.275, 742.547 909.336, 741.930 907.865, 741.038 " />
            <path fill="none" stroke-width="3.0" stroke-linecap="butt" stroke-opacity="1.0" stroke="rgb(0, 0, 0)" stroke-linejoin="round" d=" M 906.842, 738.794 907.006, 739.957 907.865, 741.038 " />
            <path fill="none" stroke-width="3.0" stroke-linecap="butt" stroke-opacity="1.0" stroke="rgb(0, 0, 0)" stroke-linejoin="round" d=" M 909.336, 726.350 907.865, 725.457 907.006, 724.377 906.842, 723.213 " />
            <path fill="none" stroke-width="3.0" stroke-linecap="butt" stroke-opacity="1.0" stroke="rgb(0, 0, 0)" stroke-linejoin="round" d=" M 909.336, 726.350 911.275, 726.966 913.493, 727.246 915.771, 727.163 917.887, 726.724 919.635, 725.973 920.842, 724.983 921.391, 723.850 " />
            <path fill="none" stroke-width="3.0" stroke-linecap="butt" stroke-opacity="1.0" stroke="rgb(0, 0, 0)" stroke-linejoin="round" d=" M 921.391, 708.270 920.842, 709.402 919.635, 710.392 917.887, 711.143 915.771, 711.582 913.493, 711.666 911.275, 711.385 909.336, 710.769 907.865, 709.877 " />
            <path fill="none" stroke-width="3.0" stroke-linecap="butt" stroke-opacity="1.0" stroke="rgb(0, 0, 0)" stroke-linejoin="round" d=" M 906.842, 707.633 907.006, 708.796 907.865, 709.877 " />
            <path fill="none" stroke-width="3.0" stroke-linecap="butt" stroke-opacity="1.0" stroke="rgb(0, 0, 0)" stroke-linejoin="round" d=" M 909.336, 695.188 907.865, 694.296 907.006, 693.215 906.842, 692.052 " />
            <path fill="none" stroke-width="3.0" stroke-linecap="butt" stroke-opacity="1.0" stroke="rgb(0, 0, 0)" stroke-linejoin="round" d=" M 909.336, 695.188 911.275, 695.805 913.493, 696.085 915.771, 696.002 917.887, 695.563 919.635, 694.812 920.842, 693.821 921.391, 692.689 " />
            <path fill="none" stroke-width="3.0" stroke-linecap="butt" stroke-opacity="1.0" stroke="rgb(0, 0, 0)" stroke-linejoin="round" d=" M 921.391, 677.108 920.842, 678.241 919.635, 679.231 917.887, 679.982 915.771, 680.421 913.493, 680.504 911.275, 680.224 909.336, 679.608 907.865, 678.715 " />
            <path fill="none" stroke-width="3.0" stroke-linecap="butt" stroke-opacity="1.0" stroke="rgb(0, 0, 0)" stroke-linejoin="round" d=" M 906.842, 676.471 907.006, 677.635 907.865, 678.715 " />
            <path fill="none" stroke-width="3.0" stroke-linecap="butt" stroke-opacity="1.0" stroke="rgb(0, 0, 0)" stroke-linejoin="round" d=" M 909.336, 664.027 907.865, 663.135 907.006, 662.054 906.843, 660.891 " />
            <path fill="none" stroke-width="3.0" stroke-linecap="butt" stroke-opacity="1.0" stroke="rgb(0, 0, 0)" stroke-linejoin="round" d=" M 909.336, 664.027 911.275, 664.644 913.493, 664.924 915.771, 664.840 917.887, 664.402 919.635, 663.650 920.842, 662.660 921.391, 661.528 " />
            <path fill="none" stroke-width="3.0" stroke-linecap="butt" stroke-opacity="1.0" stroke="rgb(0, 0, 0)" stroke-linejoin="round" d=" M 921.391, 645.947 920.842, 647.079 919.635, 648.070 917.887, 648.821 915.771, 649.260 913.493, 649.343 911.275, 649.063 909.336, 648.446 907.865, 647.554 " />
            <path fill="none" stroke-width="3.0" stroke-linecap="butt" stroke-opacity="1.0" stroke="rgb(0, 0, 0)" stroke-linejoin="round" d=" M 906.843, 645.310 907.006, 646.473 907.865, 647.554 " />
            <path fill="none" stroke-width="3.0" stroke-linecap="butt" stroke-opacity="1.0" stroke="rgb(0, 0, 0)" stroke-linejoin="round" d=" M 921.391, 630.367 920.842, 631.499 919.635, 632.489 917.887, 633.240 915.771, 633.679 913.493, 633.763 911.275, 633.482 909.336, 632.866 907.865, 631.974 907.006, 630.893 906.986, 630.750 " />
            <path fill="none" stroke-width="3.0" stroke-linecap="butt" stroke-opacity="1.0" stroke="rgb(0, 0, 0)" stroke-linejoin="round" d=" M 932.771, 389.491 933.619, 388.862 933.619, 388.862 934.430, 388.260 " />
            <path fill="none" stroke-width="3.0" stroke-linecap="butt" stroke-opacity="1.0" stroke="rgb(0, 0, 0)" stroke-linejoin="round" d=" M 932.771, 399.160 933.619, 398.531 933.619, 398.531 934.430, 397.929 " />
            <path fill="none" stroke-width="3.0" stroke-linecap="butt" stroke-opacity="1.0" stroke="rgb(0, 0, 0)" stroke-linejoin="round" d=" M 932.771, 408.830 933.619, 408.202 933.619, 408.202 934.431, 407.600 " />
            <path fill="none" stroke-width="3.0" stroke-linecap="butt" stroke-opacity="1.0" stroke="rgb(0, 0, 0)" stroke-linejoin="round" d=" M 932.771, 418.595 933.619, 417.967 933.619, 417.967 934.433, 417.363 " />
            <path fill="none" stroke-width="3.0" stroke-linecap="butt" stroke-opacity="1.0" stroke="rgb(0, 0, 0)" stroke-linejoin="round" d=" M 932.725, 596.188 924.692, 602.143 916.659, 608.099 914.084, 610.007 " />
            <path fill="none" stroke-width="3.0" stroke-linecap="butt" stroke-opacity="1.0" stroke="rgb(0, 0, 0)" stroke-linejoin="round" d=" M 932.771, 428.265 933.619, 427.636 933.619, 427.636 934.461, 427.012 " />
            <path fill="none" stroke-width="3.0" stroke-linecap="butt" stroke-opacity="1.0" stroke="rgb(0, 0, 0)" stroke-linejoin="round" d=" M 932.771, 437.935 933.619, 437.306 933.619, 437.306 934.490, 436.660 " />
        </g>
    </g>
</svg>
