<?xml version='1.0' encoding='ascii'?>
<svg xmlns="http://www.w3.org/2000/svg" version="1.1" width="1080" height="1920">
    <g id="ViewLayer_LineSet" xmlns:inkscape="http://www.inkscape.org/namespaces/inkscape" inkscape:groupmode="lineset" inkscape:label="ViewLayer_LineSet">
        <g xmlns:inkscape="http://www.inkscape.org/namespaces/inkscape" inkscape:groupmode="layer" id="strokes" inkscape:label="strokes">
            <path fill="none" stroke-width="30.0" stroke-linecap="butt" stroke-opacity="1.0" stroke="rgb(0, 0, 0)" stroke-linejoin="round" d=" M 735.653, 96.126 733.025, 98.074 724.992, 104.029 716.959, 109.985 713.420, 112.609 705.386, 118.564 697.353, 124.520 689.320, 130.476 684.771, 133.848 676.738, 139.804 668.705, 145.760 660.672, 151.715 660.273, 152.011 652.240, 157.966 644.207, 163.922 636.174, 169.877 628.141, 175.833 620.107, 181.789 612.074, 187.744 604.041, 193.700 596.008, 199.655 587.975, 205.611 579.942, 211.567 571.909, 217.522 563.876, 223.478 555.842, 229.433 547.809, 235.389 539.776, 241.344 531.743, 247.300 523.710, 253.256 515.677, 259.211 507.644, 265.167 503.963, 267.895 499.913, 277.038 495.862, 286.181 491.811, 295.324 487.760, 304.467 483.710, 313.610 479.659, 322.752 478.975, 324.296 474.924, 333.439 470.874, 342.582 466.823, 351.725 462.772, 360.867 458.721, 370.010 454.671, 379.153 450.620, 388.296 446.569, 397.439 442.519, 406.582 438.468, 415.725 434.417, 424.867 430.366, 434.010 426.316, 443.153 422.265, 452.296 418.214, 461.439 414.163, 470.582 410.113, 479.724 406.062, 488.867 402.011, 498.010 397.961, 507.153 393.910, 516.296 390.180, 524.714 390.180, 534.714 390.180, 544.570 390.180, 554.570 390.180, 564.570 390.180, 574.570 390.180, 583.927 390.180, 585.958 390.180, 595.958 390.180, 605.958 390.180, 615.126 390.180, 625.126 390.180, 635.126 390.180, 645.126 390.180, 655.126 390.180, 665.126 390.180, 675.126 390.180, 685.126 390.180, 695.126 390.180, 705.126 390.180, 715.126 390.180, 716.896 390.180, 718.926 390.180, 728.926 390.180, 738.926 390.180, 748.926 390.180, 758.308 390.180, 768.308 390.180, 768.983 390.180, 778.983 390.180, 781.055 390.180, 791.055 390.180, 801.055 390.180, 811.055 390.180, 814.125 390.180, 816.043 390.180, 826.043 390.180, 836.043 390.180, 846.043 390.180, 856.043 390.180, 866.043 390.180, 868.442 390.180, 869.337 390.180, 879.337 390.180, 882.573 390.180, 887.069 390.180, 897.069 390.180, 900.906 390.180, 901.138 390.180, 911.138 390.180, 920.552 390.180, 930.552 390.180, 940.552 390.180, 950.552 390.180, 960.552 390.180, 970.552 390.180, 980.552 390.180, 990.552 390.180, 1000.552 390.180, 1010.552 390.180, 1020.552 390.180, 1030.552 390.180, 1034.194 390.180, 1036.225 390.180, 1046.225 390.180, 1056.225 390.180, 1066.225 390.180, 1076.225 390.180, 1086.225 390.180, 1093.325 390.180, 1095.528 390.180, 1105.528 390.180, 1115.528 390.180, 1125.528 390.180, 1135.528 390.180, 1145.528 390.180, 1155.528 390.180, 1165.528 390.180, 1166.269 390.180, 1167.162 390.180, 1169.193 390.180, 1179.193 390.180, 1189.193 390.180, 1199.193 390.180, 1199.753 390.180, 1209.753 390.180, 1219.753 390.180, 1229.753 390.180, 1239.753 390.180, 1249.753 390.180, 1259.753 390.180, 1267.096 398.086, 1273.219 405.993, 1279.341 413.900, 1285.464 415.168, 1286.446 423.075, 1292.568 430.982, 1298.690 431.744, 1299.281 433.333, 1300.511 434.968, 1301.777 442.875, 1307.900 446.452, 1310.670 454.359, 1316.792 462.266, 1322.915 470.173, 1329.037 478.079, 1335.160 485.986, 1341.282 488.924, 1343.557 496.831, 1349.680 497.165, 1349.938 503.963, 1355.202 " />
            <path fill="none" stroke-width="30.0" stroke-linecap="butt" stroke-opacity="1.0" stroke="rgb(0, 0, 0)" stroke-linejoin="round" d=" M 330.906, 770.511 330.906, 780.511 330.906, 790.511 330.906, 800.511 330.906, 810.511 330.906, 820.511 330.906, 830.511 330.906, 840.511 330.906, 847.594 330.906, 857.594 330.906, 867.594 330.906, 877.594 330.906, 880.290 330.906, 890.290 330.906, 900.290 330.906, 910.290 330.906, 920.290 330.906, 930.290 330.906, 940.290 330.906, 950.290 330.906, 957.227 322.873, 963.183 316.197, 968.132 310.435, 972.403 310.435, 982.403 310.435, 992.403 310.435, 1002.403 310.435, 1012.403 310.435, 1022.004 310.435, 1032.004 310.435, 1042.004 310.435, 1052.004 310.435, 1062.004 310.435, 1072.004 310.435, 1082.004 310.435, 1092.004 310.435, 1102.004 310.435, 1112.004 310.435, 1122.004 310.435, 1132.004 310.435, 1142.004 310.435, 1148.636 310.435, 1158.636 310.435, 1168.636 310.435, 1178.636 310.435, 1179.744 310.435, 1189.744 310.435, 1199.744 310.435, 1200.688 310.435, 1210.688 310.435, 1220.688 310.435, 1230.688 310.435, 1239.048 318.342, 1245.171 326.249, 1251.293 330.735, 1254.767 338.641, 1260.889 346.548, 1267.012 349.584, 1269.363 351.998, 1271.232 359.905, 1277.354 367.811, 1283.477 375.718, 1289.599 383.625, 1295.721 391.531, 1301.844 399.438, 1307.966 407.345, 1314.089 415.251, 1320.211 423.158, 1326.333 424.218, 1327.154 " />
            <path fill="none" stroke-width="30.0" stroke-linecap="butt" stroke-opacity="1.0" stroke="rgb(0, 0, 0)" stroke-linejoin="round" d=" M 655.909, 68.077 647.876, 74.032 639.843, 79.988 631.810, 85.943 623.777, 91.899 615.744, 97.855 607.711, 103.810 599.677, 109.766 591.644, 115.721 583.611, 121.677 580.529, 123.962 576.192, 127.178 568.159, 133.133 560.125, 139.089 552.092, 145.045 544.059, 151.000 536.026, 156.956 527.993, 162.911 519.960, 168.867 511.927, 174.823 503.894, 180.778 495.860, 186.734 487.827, 192.689 479.794, 198.645 471.761, 204.600 463.728, 210.556 455.695, 216.512 447.662, 222.467 439.629, 228.423 431.595, 234.378 424.219, 239.847 420.168, 248.990 416.117, 258.133 412.066, 267.276 408.016, 276.419 403.965, 285.562 399.914, 294.704 395.864, 303.847 391.813, 312.990 387.762, 322.133 383.711, 331.276 379.661, 340.419 375.610, 349.562 371.559, 358.704 367.508, 367.847 363.458, 376.990 359.407, 386.133 355.356, 395.276 351.306, 404.419 349.585, 408.303 345.534, 417.445 341.483, 426.588 337.433, 435.731 333.382, 444.874 329.331, 454.017 325.280, 463.160 321.230, 472.302 317.179, 481.445 313.128, 490.588 310.435, 496.666 310.435, 506.666 310.435, 516.666 310.435, 526.666 310.435, 536.666 310.435, 543.035 310.435, 553.035 310.435, 563.035 310.435, 573.035 310.435, 583.035 310.435, 593.035 310.435, 603.035 310.435, 613.035 310.435, 623.035 310.435, 631.432 310.435, 641.432 310.435, 651.432 310.435, 661.432 310.435, 671.432 310.435, 681.432 310.435, 691.432 310.435, 701.432 310.435, 711.432 310.435, 717.935 310.435, 727.935 310.435, 737.935 310.435, 747.935 310.435, 749.687 310.435, 759.687 310.435, 763.311 " />
            <path fill="none" stroke-width="30.0" stroke-linecap="butt" stroke-opacity="1.0" stroke="rgb(0, 0, 0)" stroke-linejoin="round" d=" M 576.165, 40.028 568.132, 45.984 560.099, 51.939 552.066, 57.895 544.033, 63.850 536.000, 69.806 527.967, 75.762 519.933, 81.717 511.900, 87.673 503.867, 93.628 495.834, 99.584 487.801, 105.540 479.768, 111.495 471.735, 117.451 463.702, 123.406 455.669, 129.362 447.635, 135.318 439.602, 141.273 431.569, 147.229 423.536, 153.184 415.503, 159.140 406.044, 166.153 398.011, 172.108 389.978, 178.064 381.944, 184.020 373.911, 189.975 365.878, 195.931 357.845, 201.886 349.812, 207.842 344.475, 211.799 340.424, 220.942 336.373, 230.084 332.322, 239.227 328.272, 248.370 324.221, 257.513 320.170, 266.656 316.120, 275.799 314.238, 280.045 310.187, 289.188 306.137, 298.331 302.086, 307.474 298.035, 316.617 293.984, 325.760 289.934, 334.902 285.883, 344.045 281.832, 353.188 277.782, 362.331 273.731, 371.474 269.680, 380.617 265.629, 389.760 261.579, 398.902 257.528, 408.045 253.477, 417.188 249.427, 426.331 245.376, 435.474 241.325, 444.617 237.274, 453.759 233.224, 462.902 230.691, 468.618 230.691, 478.618 230.691, 488.618 230.691, 498.618 230.691, 508.618 230.691, 518.618 230.691, 528.618 230.691, 538.618 230.691, 548.618 230.691, 558.618 230.691, 567.571 230.691, 577.571 230.691, 587.571 230.691, 597.571 230.691, 603.384 230.691, 613.384 230.691, 623.384 230.691, 633.384 230.691, 638.429 230.691, 648.429 230.691, 658.429 230.691, 668.429 230.691, 670.628 230.691, 680.628 230.691, 690.628 230.691, 700.628 230.691, 710.628 230.691, 720.628 230.691, 730.628 230.691, 740.628 230.691, 750.628 230.691, 760.628 230.691, 770.628 230.691, 777.243 230.691, 787.243 230.691, 797.243 230.691, 807.243 230.691, 817.243 230.691, 827.243 230.691, 837.243 230.691, 847.243 230.691, 857.243 230.691, 867.243 230.691, 877.243 230.691, 887.243 230.691, 897.243 230.691, 907.243 230.691, 917.243 230.691, 927.243 230.691, 937.243 230.691, 947.243 230.691, 957.243 230.691, 967.243 230.691, 977.243 230.691, 987.243 230.691, 997.243 230.691, 1007.243 230.691, 1017.243 230.691, 1027.243 230.691, 1030.727 230.691, 1040.727 230.691, 1050.727 230.691, 1060.727 230.691, 1070.727 230.691, 1080.727 230.691, 1090.727 230.691, 1100.727 230.691, 1110.727 230.691, 1120.588 230.691, 1130.588 230.691, 1140.588 230.691, 1150.588 230.691, 1160.588 230.691, 1170.588 230.691, 1180.588 230.691, 1186.974 230.691, 1196.974 230.691, 1206.974 230.691, 1211.000 238.598, 1217.122 246.505, 1223.245 254.411, 1229.367 262.318, 1235.489 270.225, 1241.612 278.131, 1247.734 286.038, 1253.857 293.945, 1259.979 301.851, 1266.101 309.758, 1272.224 314.238, 1275.692 322.144, 1281.815 330.051, 1287.937 337.958, 1294.060 344.474, 1299.106 " />
            <path fill="none" stroke-width="30.0" stroke-linecap="butt" stroke-opacity="1.0" stroke="rgb(0, 0, 0)" stroke-linejoin="round" d=" M 817.332, 1074.786 813.281, 1083.929 809.230, 1093.072 805.180, 1102.215 801.129, 1111.358 797.078, 1120.500 793.027, 1129.643 792.398, 1131.064 788.429, 1134.006 780.396, 1139.962 772.363, 1145.918 764.330, 1151.873 756.297, 1157.829 748.264, 1163.784 740.231, 1169.740 732.198, 1175.695 724.164, 1181.651 716.131, 1187.606 708.098, 1193.562 700.065, 1199.518 692.032, 1205.473 683.999, 1211.429 675.966, 1217.384 667.932, 1223.340 659.899, 1229.295 653.077, 1234.353 645.044, 1240.309 637.011, 1246.264 628.978, 1252.220 620.945, 1258.176 612.912, 1264.131 606.705, 1268.733 606.701, 1268.730 598.795, 1262.608 590.888, 1256.485 582.981, 1250.363 575.075, 1244.240 567.630, 1238.475 559.723, 1232.353 555.989, 1229.462 551.006, 1225.603 543.099, 1219.481 536.656, 1214.492 528.750, 1208.369 526.235, 1206.422 518.328, 1200.300 512.620, 1195.880 511.722, 1195.184 511.722, 1185.184 511.722, 1175.184 511.722, 1165.184 511.722, 1155.184 511.722, 1145.184 511.722, 1135.184 511.722, 1125.184 511.722, 1115.184 511.722, 1112.187 511.722, 1105.797 511.722, 1100.532 511.722, 1094.143 511.722, 1088.877 511.722, 1082.488 511.722, 1077.108 511.722, 1070.719 511.722, 1065.453 511.722, 1055.453 511.722, 1045.453 511.722, 1035.453 511.722, 1025.453 511.722, 1015.453 511.722, 1005.453 511.722, 995.453 511.722, 985.453 511.722, 975.453 511.722, 965.453 511.722, 955.453 511.722, 945.453 511.722, 935.453 511.722, 925.453 511.722, 915.453 511.722, 910.940 511.722, 900.940 511.722, 890.940 511.722, 880.940 511.722, 870.940 511.722, 860.940 511.722, 850.940 511.722, 840.940 511.722, 830.940 511.722, 823.044 511.722, 820.369 511.722, 810.369 511.722, 800.369 511.722, 790.369 511.722, 781.052 511.722, 779.415 511.722, 779.171 511.722, 772.782 511.722, 767.516 511.722, 761.127 511.722, 751.127 511.723, 748.356 511.723, 738.356 511.723, 728.356 511.724, 718.356 511.724, 717.850 511.724, 707.850 511.723, 697.850 511.723, 687.850 511.723, 677.850 511.723, 667.850 511.723, 666.222 511.723, 656.222 511.723, 646.222 511.722, 636.222 511.722, 626.222 511.722, 616.222 511.722, 610.560 511.722, 600.560 511.722, 590.747 515.773, 581.604 519.824, 572.461 523.874, 563.318 527.925, 554.176 531.976, 545.033 536.026, 535.890 540.077, 526.747 544.128, 517.604 548.179, 508.461 552.229, 499.318 556.280, 490.176 560.331, 481.033 564.382, 471.890 568.432, 462.747 572.483, 453.604 573.329, 451.694 577.380, 442.551 581.431, 433.408 581.771, 432.640 585.822, 423.497 589.873, 414.354 591.937, 409.694 595.988, 400.551 600.039, 391.409 604.089, 382.266 604.604, 381.105 606.705, 376.361 614.739, 370.405 622.772, 364.450 630.805, 358.494 638.838, 352.539 646.871, 346.583 651.026, 343.503 659.059, 337.547 667.092, 331.592 675.125, 325.636 683.158, 319.681 688.510, 315.713 688.750, 315.535 696.783, 309.579 696.906, 309.488 704.939, 303.532 712.973, 297.577 718.739, 293.301 726.772, 287.346 734.806, 281.390 742.839, 275.435 746.027, 273.070 754.061, 267.115 762.094, 261.159 763.601, 260.042 769.691, 255.526 777.724, 249.571 785.758, 243.615 789.071, 241.159 792.398, 238.692 800.305, 244.814 808.212, 250.937 816.118, 257.059 824.025, 263.182 831.932, 269.304 840.009, 275.559 847.916, 281.682 849.435, 282.858 857.342, 288.981 862.447, 292.934 870.354, 299.056 872.499, 300.717 880.406, 306.839 887.382, 312.240 887.382, 322.240 887.382, 332.240 887.382, 342.240 887.382, 352.240 887.382, 362.240 887.382, 367.902 887.382, 377.902 887.382, 387.714 887.381, 397.714 887.381, 407.714 887.381, 417.714 887.381, 427.714 887.381, 437.714 887.381, 447.714 887.381, 457.714 887.381, 467.714 887.381, 477.714 887.381, 482.620 887.382, 489.010 887.382, 499.010 887.381, 509.010 887.381, 519.010 887.381, 529.010 887.381, 539.010 887.381, 549.010 887.381, 559.010 887.381, 569.010 887.381, 579.010 887.381, 589.010 887.381, 599.010 887.381, 609.010 887.381, 619.010 887.381, 629.010 887.381, 639.010 887.381, 649.010 887.381, 659.010 887.381, 669.010 887.381, 679.010 887.381, 689.010 887.381, 699.010 887.381, 709.010 887.381, 715.132 887.381, 720.397 887.381, 726.786 887.381, 732.052 887.381, 738.441 887.381, 743.821 887.381, 750.211 887.381, 755.476 887.381, 761.865 887.381, 767.131 887.381, 773.518 887.381, 783.518 887.381, 791.617 887.381, 801.617 887.381, 804.179 887.381, 814.179 887.381, 824.179 887.381, 834.179 887.381, 844.179 887.381, 854.179 887.381, 864.179 887.381, 874.179 887.381, 884.179 887.381, 887.146 887.381, 897.147 887.381, 907.147 887.381, 916.678 883.331, 925.821 879.280, 934.964 875.229, 944.107 871.178, 953.250 867.128, 962.393 863.077, 971.536 859.026, 980.678 854.975, 989.821 850.925, 998.964 846.874, 1008.107 842.823, 1017.250 838.773, 1026.393 834.722, 1035.535 830.671, 1044.678 826.620, 1053.821 822.570, 1062.964 818.519, 1072.107 817.332, 1074.786 " />
            <path fill="none" stroke-width="30.0" stroke-linecap="butt" stroke-opacity="1.0" stroke="rgb(0, 0, 0)" stroke-linejoin="round" d=" M 433.333, 1392.932 437.797, 1398.662 446.215, 1403.084 449.037, 1404.076 458.804, 1406.225 460.128, 1406.517 470.128, 1406.589 472.203, 1406.604 482.003, 1404.613 483.425, 1404.324 492.083, 1400.026 " />
            <path fill="none" stroke-width="30.0" stroke-linecap="butt" stroke-opacity="1.0" stroke="rgb(0, 0, 0)" stroke-linejoin="round" d=" M 492.083, 1400.026 500.117, 1394.070 508.150, 1388.115 516.183, 1382.159 524.216, 1376.203 532.249, 1370.248 536.911, 1366.791 " />
            <path fill="none" stroke-width="30.0" stroke-linecap="butt" stroke-opacity="1.0" stroke="rgb(0, 0, 0)" stroke-linejoin="round" d=" M 479.501, 1877.542 475.603, 1875.178 473.326, 1872.314 472.893, 1869.231 " />
            <path fill="none" stroke-width="30.0" stroke-linecap="butt" stroke-opacity="1.0" stroke="rgb(0, 0, 0)" stroke-linejoin="round" d=" M 472.893, 1785.978 473.326, 1789.061 475.603, 1791.925 479.502, 1794.289 " />
            <path fill="none" stroke-width="30.0" stroke-linecap="butt" stroke-opacity="1.0" stroke="rgb(0, 0, 0)" stroke-linejoin="round" d=" M 479.502, 1711.036 475.603, 1708.672 473.326, 1705.808 472.893, 1702.725 " />
            <path fill="none" stroke-width="30.0" stroke-linecap="butt" stroke-opacity="1.0" stroke="rgb(0, 0, 0)" stroke-linejoin="round" d=" M 511.445, 1870.919 509.991, 1873.920 506.792, 1876.544 502.162, 1878.535 496.553, 1879.698 490.516, 1879.919 484.640, 1879.176 479.501, 1877.542 " />
            <path fill="none" stroke-width="30.0" stroke-linecap="butt" stroke-opacity="1.0" stroke="rgb(0, 0, 0)" stroke-linejoin="round" d=" M 511.445, 1787.666 509.991, 1790.667 506.792, 1793.291 502.162, 1795.282 496.553, 1796.444 490.516, 1796.665 484.640, 1795.923 479.502, 1794.289 " />
            <path fill="none" stroke-width="30.0" stroke-linecap="butt" stroke-opacity="1.0" stroke="rgb(0, 0, 0)" stroke-linejoin="round" d=" M 479.502, 1711.036 484.640, 1712.670 490.516, 1713.412 496.553, 1713.191 502.162, 1712.029 506.792, 1710.038 509.991, 1707.414 511.445, 1704.413 " />
            <path fill="none" stroke-width="30.0" stroke-linecap="butt" stroke-opacity="1.0" stroke="rgb(0, 0, 0)" stroke-linejoin="round" d=" M 511.445, 1621.160 509.991, 1624.160 506.792, 1626.785 502.162, 1628.775 496.554, 1629.938 490.516, 1630.159 484.640, 1629.416 479.502, 1627.783 475.603, 1625.419 " />
            <path fill="none" stroke-width="30.0" stroke-linecap="butt" stroke-opacity="1.0" stroke="rgb(0, 0, 0)" stroke-linejoin="round" d=" M 472.893, 1619.472 473.326, 1622.555 475.603, 1625.419 " />
            <path fill="none" stroke-width="30.0" stroke-linecap="butt" stroke-opacity="1.0" stroke="rgb(0, 0, 0)" stroke-linejoin="round" d=" M 479.502, 1544.530 475.603, 1542.165 473.326, 1539.302 472.893, 1536.218 " />
            <path fill="none" stroke-width="30.0" stroke-linecap="butt" stroke-opacity="1.0" stroke="rgb(0, 0, 0)" stroke-linejoin="round" d=" M 479.502, 1544.530 484.640, 1546.163 490.516, 1546.906 496.554, 1546.685 502.162, 1545.522 506.792, 1543.531 509.991, 1540.907 511.445, 1537.907 " />
            <path fill="none" stroke-width="30.0" stroke-linecap="butt" stroke-opacity="1.0" stroke="rgb(0, 0, 0)" stroke-linejoin="round" d=" M 511.445, 1454.654 509.991, 1457.654 506.792, 1460.278 502.162, 1462.269 496.554, 1463.432 490.516, 1463.653 484.641, 1462.910 479.502, 1461.277 479.456, 1461.249 " />
            <path fill="none" stroke-width="30.0" stroke-linecap="butt" stroke-opacity="1.0" stroke="rgb(0, 0, 0)" stroke-linejoin="round" d=" M 535.751, 893.406 537.787, 891.897 537.787, 891.897 539.736, 890.452 " />
            <path fill="none" stroke-width="30.0" stroke-linecap="butt" stroke-opacity="1.0" stroke="rgb(0, 0, 0)" stroke-linejoin="round" d=" M 535.751, 870.195 537.787, 868.686 537.787, 868.686 539.736, 867.241 " />
            <path fill="none" stroke-width="30.0" stroke-linecap="butt" stroke-opacity="1.0" stroke="rgb(0, 0, 0)" stroke-linejoin="round" d=" M 535.751, 916.617 537.787, 915.108 537.787, 915.108 538.504, 914.576 539.736, 913.663 539.737, 913.662 " />
            <path fill="none" stroke-width="30.0" stroke-linecap="butt" stroke-opacity="1.0" stroke="rgb(0, 0, 0)" stroke-linejoin="round" d=" M 535.751, 940.056 537.787, 938.547 537.787, 938.547 539.742, 937.097 " />
            <path fill="none" stroke-width="30.0" stroke-linecap="butt" stroke-opacity="1.0" stroke="rgb(0, 0, 0)" stroke-linejoin="round" d=" M 535.751, 963.267 537.787, 961.758 537.787, 961.758 539.810, 960.258 " />
            <path fill="none" stroke-width="30.0" stroke-linecap="butt" stroke-opacity="1.0" stroke="rgb(0, 0, 0)" stroke-linejoin="round" d=" M 535.751, 986.477 537.786, 984.969 537.786, 984.969 539.878, 983.418 " />
        </g>
    </g>
</svg>
