<?xml version='1.0' encoding='ascii'?>
<svg xmlns="http://www.w3.org/2000/svg" version="1.1" width="1024" height="720">
    <g id="ViewLayer_LineSet" xmlns:inkscape="http://www.inkscape.org/namespaces/inkscape" inkscape:groupmode="lineset" inkscape:label="ViewLayer_LineSet">
        <g xmlns:inkscape="http://www.inkscape.org/namespaces/inkscape" inkscape:groupmode="layer" id="strokes" inkscape:label="strokes">
            <path fill="none" stroke-width="3.0" stroke-linecap="butt" stroke-opacity="1.0" stroke="rgb(0, 0, 0)" stroke-linejoin="round" d=" M 459.828, 576.143 469.784, 575.206 479.740, 574.269 489.696, 573.333 499.652, 572.396 509.608, 571.459 519.564, 570.522 529.520, 569.585 539.476, 568.648 542.709, 568.344 552.665, 567.407 557.465, 566.955 565.499, 561.000 568.402, 558.847 576.435, 552.891 584.468, 546.936 589.279, 543.370 597.312, 537.414 605.345, 531.458 610.596, 527.565 618.629, 521.610 626.662, 515.654 630.181, 513.045 638.214, 507.089 646.247, 501.134 654.280, 495.178 662.313, 489.223 670.346, 483.267 678.379, 477.312 686.413, 471.356 694.446, 465.400 702.479, 459.445 708.271, 455.150 716.304, 449.195 724.337, 443.239 732.370, 437.283 740.403, 431.328 748.437, 425.372 756.801, 419.171 764.834, 413.215 772.867, 407.260 780.900, 401.305 786.432, 397.203 794.465, 391.248 802.499, 385.292 810.532, 379.337 811.103, 378.914 818.687, 373.291 " />
            <path fill="none" stroke-width="3.0" stroke-linecap="butt" stroke-opacity="1.0" stroke="rgb(0, 0, 0)" stroke-linejoin="round" d=" M 818.687, 364.410 816.159, 366.285 808.574, 371.908 800.541, 377.863 792.508, 383.819 784.475, 389.774 779.110, 393.751 771.077, 399.707 763.044, 405.662 755.010, 411.618 746.977, 417.573 742.752, 420.706 734.719, 426.661 726.686, 432.617 718.653, 438.573 710.620, 444.528 702.587, 450.484 694.554, 456.440 686.521, 462.395 683.206, 464.852 675.173, 470.808 667.140, 476.764 659.107, 482.719 651.074, 488.675 643.041, 494.630 639.466, 497.281 631.432, 503.237 623.399, 509.192 615.436, 515.097 607.403, 521.052 599.369, 527.008 591.336, 532.964 589.279, 534.489 581.246, 540.445 573.213, 546.400 570.885, 548.126 562.852, 554.082 557.465, 558.075 556.428, 558.172 546.472, 559.109 536.516, 560.046 526.560, 560.983 516.604, 561.920 506.648, 562.857 496.692, 563.794 486.736, 564.731 476.780, 565.668 471.439, 566.170 " />
            <path fill="none" stroke-width="3.0" stroke-linecap="butt" stroke-opacity="1.0" stroke="rgb(0, 0, 0)" stroke-linejoin="round" d=" M 344.292, 558.310 345.483, 558.729 345.579, 558.763 355.013, 562.081 364.446, 565.399 373.880, 568.717 383.313, 572.035 392.747, 575.353 402.180, 578.671 408.678, 580.957 418.634, 580.020 428.705, 579.072 428.705, 579.072 438.661, 578.135 448.617, 577.198 458.573, 576.261 459.828, 576.143 " />
            <path fill="none" stroke-width="3.0" stroke-linecap="butt" stroke-opacity="1.0" stroke="rgb(0, 0, 0)" stroke-linejoin="round" d=" M 471.439, 566.170 461.483, 567.107 451.527, 568.044 442.424, 568.901 442.424, 568.901 432.468, 569.838 422.512, 570.774 412.556, 571.711 408.678, 572.076 399.245, 568.758 389.811, 565.440 380.378, 562.122 370.944, 558.804 361.511, 555.486 352.998, 552.492 344.292, 549.430 " />
            <path fill="none" stroke-width="3.0" stroke-linecap="butt" stroke-opacity="1.0" stroke="rgb(0, 0, 0)" stroke-linejoin="round" d=" M 818.687, 408.812 815.720, 411.012 812.995, 413.032 808.531, 416.342 800.497, 422.298 792.464, 428.253 784.431, 434.209 776.398, 440.164 768.365, 446.120 760.332, 452.076 752.299, 458.031 744.266, 463.987 736.232, 469.942 728.199, 475.898 720.166, 481.854 712.133, 487.809 704.100, 493.765 696.067, 499.720 688.034, 505.676 680.001, 511.631 671.967, 517.587 663.934, 523.543 655.901, 529.498 647.868, 535.454 639.835, 541.409 631.802, 547.365 623.769, 553.321 615.736, 559.276 607.703, 565.232 599.669, 571.187 593.041, 576.101 591.240, 577.437 589.278, 578.891 581.245, 584.847 573.212, 590.802 565.179, 596.758 558.471, 601.731 557.465, 602.477 547.509, 603.413 537.553, 604.350 527.597, 605.287 517.641, 606.224 507.685, 607.161 497.729, 608.098 487.773, 609.035 477.817, 609.972 467.861, 610.909 457.905, 611.845 447.949, 612.782 437.993, 613.719 428.037, 614.656 418.081, 615.593 413.383, 616.035 408.678, 616.478 402.535, 614.317 393.101, 610.999 383.668, 607.681 374.234, 604.363 364.801, 601.045 355.367, 597.727 345.934, 594.409 336.500, 591.090 327.067, 587.772 317.633, 584.454 308.200, 581.136 298.766, 577.818 289.333, 574.500 279.899, 571.182 270.466, 567.864 261.033, 564.546 251.599, 561.228 242.166, 557.910 240.253, 557.237 235.422, 555.538 233.118, 554.727 229.279, 553.377 228.412, 550.974 225.017, 541.568 221.623, 532.162 218.228, 522.756 214.834, 513.349 211.439, 503.943 208.045, 494.537 204.650, 485.131 201.860, 477.398 " />
            <path fill="none" stroke-width="3.0" stroke-linecap="butt" stroke-opacity="1.0" stroke="rgb(0, 0, 0)" stroke-linejoin="round" d=" M 818.687, 399.932 810.654, 405.887 808.398, 407.560 800.365, 413.515 798.946, 414.567 790.913, 420.523 783.466, 426.044 775.433, 432.000 767.399, 437.955 759.366, 443.911 751.333, 449.866 743.300, 455.822 735.267, 461.778 727.234, 467.733 719.201, 473.689 711.168, 479.644 703.135, 485.600 695.101, 491.556 687.068, 497.511 679.035, 503.467 671.002, 509.422 662.969, 515.378 654.936, 521.334 646.903, 527.289 638.870, 533.245 630.836, 539.200 622.803, 545.156 614.770, 551.111 606.737, 557.067 602.326, 560.337 596.079, 564.969 589.278, 570.011 581.245, 575.967 573.212, 581.922 565.179, 587.878 560.954, 591.010 557.465, 593.596 547.509, 594.533 537.553, 595.470 527.597, 596.407 517.641, 597.344 507.685, 598.281 497.729, 599.218 487.773, 600.154 477.817, 601.091 467.861, 602.028 457.905, 602.965 447.949, 603.902 437.993, 604.839 428.037, 605.776 424.994, 606.062 415.038, 606.999 408.678, 607.598 " />
            <path fill="none" stroke-width="3.0" stroke-linecap="butt" stroke-opacity="1.0" stroke="rgb(0, 0, 0)" stroke-linejoin="round" d=" M 408.678, 607.598 399.245, 604.279 389.811, 600.961 387.374, 600.104 377.940, 596.786 368.507, 593.468 359.073, 590.150 349.640, 586.832 340.206, 583.514 330.773, 580.196 321.339, 576.878 311.906, 573.559 302.472, 570.241 293.039, 566.923 283.605, 563.605 274.172, 560.287 267.336, 557.883 257.902, 554.565 250.583, 551.990 242.591, 549.179 233.157, 545.861 229.279, 544.497 226.272, 536.165 222.878, 526.759 219.483, 517.352 216.089, 507.946 212.694, 498.540 209.300, 489.134 205.905, 479.727 202.511, 470.321 201.860, 468.518 " />
            <path fill="none" stroke-width="3.0" stroke-linecap="butt" stroke-opacity="1.0" stroke="rgb(0, 0, 0)" stroke-linejoin="round" d=" M 344.292, 540.549 353.726, 543.867 360.513, 546.255 369.947, 549.573 379.380, 552.891 388.814, 556.209 398.247, 559.527 407.681, 562.845 408.678, 563.196 418.634, 562.259 428.590, 561.322 438.546, 560.385 448.502, 559.448 456.144, 558.729 456.144, 558.729 466.100, 557.792 476.056, 556.855 483.050, 556.197 493.006, 555.260 502.962, 554.324 512.918, 553.387 522.874, 552.450 532.830, 551.513 542.786, 550.576 552.742, 549.639 557.465, 549.195 565.499, 543.239 573.367, 537.405 581.401, 531.450 589.279, 525.609 " />
            <path fill="none" stroke-width="3.0" stroke-linecap="butt" stroke-opacity="1.0" stroke="rgb(0, 0, 0)" stroke-linejoin="round" d=" M 589.279, 516.729 581.246, 522.684 575.850, 526.684 567.817, 532.640 559.784, 538.595 557.466, 540.314 547.509, 541.251 537.553, 542.188 527.597, 543.125 517.641, 544.062 507.685, 544.999 497.729, 545.936 494.661, 546.224 484.705, 547.161 474.749, 548.098 469.863, 548.558 469.863, 548.558 459.907, 549.495 449.951, 550.432 439.995, 551.369 430.039, 552.305 421.339, 553.124 411.383, 554.061 408.678, 554.316 399.245, 550.997 389.811, 547.679 380.378, 544.361 370.944, 541.043 368.029, 540.018 358.595, 536.700 350.805, 533.960 " />
            <path fill="none" stroke-width="3.0" stroke-linecap="butt" stroke-opacity="1.0" stroke="rgb(0, 0, 0)" stroke-linejoin="round" d=" M 361.504, 528.843 370.938, 532.161 375.544, 533.781 384.977, 537.099 394.411, 540.417 403.844, 543.735 408.678, 545.435 418.634, 544.498 421.339, 544.244 431.295, 543.307 441.251, 542.370 451.207, 541.433 461.163, 540.496 471.119, 539.559 481.075, 538.622 483.583, 538.386 483.583, 538.386 493.539, 537.450 503.495, 536.513 506.272, 536.251 516.228, 535.314 526.184, 534.378 536.140, 533.441 546.096, 532.504 556.052, 531.567 557.466, 531.434 565.499, 525.478 573.532, 519.523 578.333, 515.963 586.366, 510.008 589.279, 507.848 " />
            <path fill="none" stroke-width="3.0" stroke-linecap="butt" stroke-opacity="1.0" stroke="rgb(0, 0, 0)" stroke-linejoin="round" d=" M 651.289, 452.994 643.256, 458.950 638.955, 462.138 634.792, 465.224 626.759, 471.180 618.726, 477.136 610.693, 483.091 602.660, 489.047 594.627, 495.003 589.279, 498.968 581.246, 504.923 580.815, 505.242 572.782, 511.198 564.749, 517.154 557.466, 522.554 547.509, 523.490 537.553, 524.427 527.597, 525.364 517.883, 526.278 507.927, 527.215 497.971, 528.152 497.303, 528.215 497.303, 528.215 487.347, 529.152 477.391, 530.089 467.435, 531.026 457.478, 531.963 447.522, 532.900 437.566, 533.836 427.610, 534.773 417.654, 535.710 408.678, 536.555 399.245, 533.237 389.811, 529.919 383.059, 527.544 373.626, 524.226 372.204, 523.726 362.770, 520.408 353.337, 517.090 343.903, 513.771 343.523, 513.638 334.090, 510.320 324.656, 507.002 319.848, 505.310 317.879, 504.618 308.445, 501.300 306.443, 500.595 297.009, 497.277 292.611, 495.730 283.178, 492.412 273.744, 489.094 265.753, 486.283 259.592, 484.116 251.059, 481.115 249.842, 480.687 244.819, 478.920 235.385, 475.602 229.279, 473.454 225.884, 464.048 222.490, 454.642 222.086, 453.523 219.558, 446.517 216.163, 437.111 214.501, 432.505 211.107, 423.099 209.154, 417.688 205.760, 408.282 202.365, 398.876 201.860, 397.475 " />
            <path fill="none" stroke-width="3.0" stroke-linecap="butt" stroke-opacity="1.0" stroke="rgb(0, 0, 0)" stroke-linejoin="round" d=" M 281.383, 374.369 281.289, 374.109 278.761, 367.104 276.233, 360.098 275.727, 358.696 275.547, 358.197 273.705, 353.092 271.970, 348.285 271.177, 346.086 268.698, 339.218 268.648, 339.080 268.544, 338.791 266.120, 332.074 264.503, 327.593 262.558, 322.203 261.438, 319.101 261.064, 318.062 258.535, 311.056 258.495, 310.944 266.528, 304.988 274.561, 299.032 282.594, 293.077 287.699, 289.292 289.947, 287.625 291.800, 286.252 294.048, 284.585 295.901, 283.211 298.149, 281.545 300.042, 280.141 302.290, 278.474 304.143, 277.101 312.176, 271.145 320.209, 265.190 328.243, 259.234 336.276, 253.278 344.309, 247.323 352.342, 241.367 360.375, 235.412 368.408, 229.456 376.441, 223.500 384.474, 217.545 392.508, 211.589 400.541, 205.634 404.877, 202.419 407.125, 200.752 408.978, 199.378 411.226, 197.711 419.259, 191.756 426.454, 186.422 434.487, 180.466 442.520, 174.511 444.621, 172.953 452.654, 166.998 460.687, 161.042 464.206, 158.433 471.178, 153.265 481.134, 152.328 491.090, 151.391 501.046, 150.454 511.002, 149.517 520.958, 148.580 530.914, 147.643 540.870, 146.706 550.826, 145.769 560.782, 144.832 562.777, 144.645 572.733, 143.708 582.689, 142.771 592.645, 141.834 595.382, 141.577 596.012, 141.798 605.446, 145.116 607.456, 145.823 616.889, 149.141 626.323, 152.459 635.756, 155.778 645.190, 159.096 654.623, 162.414 664.057, 165.732 673.490, 169.050 682.924, 172.368 692.357, 175.686 701.791, 179.004 703.260, 179.521 712.693, 182.839 722.127, 186.157 731.560, 189.475 739.165, 192.150 742.022, 200.067 744.192, 206.079 747.586, 215.485 749.363, 220.410 752.758, 229.816 753.034, 230.581 753.619, 232.202 755.237, 236.688 756.045, 238.925 756.705, 240.753 760.099, 250.159 760.375, 250.924 762.053, 255.575 761.093, 256.287 757.644, 258.844 749.611, 264.800 749.520, 264.867 742.468, 270.095 741.396, 270.890 735.497, 275.264 733.272, 276.913 725.239, 282.868 717.206, 288.824 717.025, 288.958 708.992, 294.914 708.901, 294.981 702.102, 300.022 699.853, 301.689 691.820, 307.644 683.787, 313.600 675.754, 319.556 667.721, 325.511 659.688, 331.467 651.655, 337.422 643.621, 343.378 635.588, 349.334 627.555, 355.289 620.288, 360.677 618.435, 362.050 616.187, 363.717 614.334, 365.091 612.086, 366.758 610.193, 368.161 607.945, 369.828 606.092, 371.201 603.844, 372.868 601.991, 374.242 599.743, 375.909 593.375, 380.629 588.955, 383.907 580.922, 389.862 572.889, 395.818 564.856, 401.773 559.761, 405.550 551.728, 411.506 549.370, 413.254 539.414, 414.191 529.458, 415.128 519.502, 416.065 509.546, 417.002 499.590, 417.939 489.634, 418.875 479.678, 419.812 469.722, 420.749 459.766, 421.686 457.771, 421.874 447.815, 422.811 437.858, 423.748 427.902, 424.685 425.166, 424.942 415.732, 421.624 406.299, 418.306 396.866, 414.988 387.432, 411.670 377.999, 408.351 368.565, 405.033 359.132, 401.715 350.000, 398.503 340.740, 395.246 335.590, 393.435 334.323, 392.989 327.466, 390.577 321.702, 388.550 319.343, 387.720 317.288, 386.997 313.579, 385.692 311.219, 384.862 305.454, 382.835 303.094, 382.005 297.330, 379.978 294.970, 379.148 289.206, 377.120 286.846, 376.290 281.383, 374.369 " />
            <path fill="none" stroke-width="3.0" stroke-linecap="butt" stroke-opacity="1.0" stroke="rgb(0, 0, 0)" stroke-linejoin="round" d=" M 378.827, 253.157 378.639, 253.296 377.759, 253.949 375.137, 255.892 375.295, 255.948 379.015, 257.256 385.108, 259.400 385.316, 259.472 386.496, 259.888 " />
            <path fill="none" stroke-width="3.0" stroke-linecap="butt" stroke-opacity="1.0" stroke="rgb(0, 0, 0)" stroke-linejoin="round" d=" M 201.860, 406.356 205.255, 415.762 208.649, 425.168 211.294, 432.498 211.973, 434.379 215.368, 443.786 217.030, 448.391 219.558, 455.397 222.952, 464.803 226.347, 474.210 229.279, 482.335 238.712, 485.653 244.819, 487.800 251.762, 490.243 252.980, 490.671 259.592, 492.997 269.025, 496.315 276.453, 498.927 " />
            <path fill="none" stroke-width="3.0" stroke-linecap="butt" stroke-opacity="1.0" stroke="rgb(0, 0, 0)" stroke-linejoin="round" d=" M 229.279, 491.215 238.712, 494.533 244.819, 496.681 253.683, 499.799 254.900, 500.227 259.592, 501.877 269.025, 505.195 274.540, 507.135 281.117, 509.448 287.152, 511.571 296.586, 514.889 298.609, 515.601 299.665, 515.972 305.298, 517.953 314.731, 521.271 324.165, 524.589 333.598, 527.907 343.032, 531.225 350.805, 533.960 " />
            <path fill="none" stroke-width="3.0" stroke-linecap="butt" stroke-opacity="1.0" stroke="rgb(0, 0, 0)" stroke-linejoin="round" d=" M 361.504, 528.843 352.071, 525.525 342.637, 522.206 333.246, 518.903 331.982, 518.459 324.411, 515.796 314.977, 512.477 305.544, 509.159 298.414, 506.652 291.244, 504.130 281.810, 500.811 281.248, 500.614 276.453, 498.927 " />
            <path fill="none" stroke-width="3.0" stroke-linecap="butt" stroke-opacity="1.0" stroke="rgb(0, 0, 0)" stroke-linejoin="round" d=" M 303.018, 522.609 303.095, 522.584 " />
            <path fill="none" stroke-width="3.0" stroke-linecap="butt" stroke-opacity="1.0" stroke="rgb(0, 0, 0)" stroke-linejoin="round" d=" M 201.860, 424.116 205.255, 433.523 206.917, 438.128 210.311, 447.534 211.973, 452.140 214.501, 459.146 215.574, 462.117 218.968, 471.523 222.362, 480.929 225.757, 490.336 229.279, 500.095 238.712, 503.413 244.819, 505.561 254.252, 508.879 255.603, 509.354 256.821, 509.783 259.592, 510.757 267.832, 513.656 268.108, 513.753 277.541, 517.071 286.975, 520.389 288.912, 521.070 288.912, 521.070 289.957, 521.438 " />
            <path fill="none" stroke-width="3.0" stroke-linecap="butt" stroke-opacity="1.0" stroke="rgb(0, 0, 0)" stroke-linejoin="round" d=" M 229.279, 491.215 225.884, 481.809 222.490, 472.402 219.095, 462.996 217.030, 457.272 214.501, 450.266 213.434, 447.307 210.039, 437.901 209.445, 436.254 206.050, 426.848 202.656, 417.441 201.860, 415.236 " />
            <path fill="none" stroke-width="3.0" stroke-linecap="butt" stroke-opacity="1.0" stroke="rgb(0, 0, 0)" stroke-linejoin="round" d=" M 408.678, 598.717 418.634, 597.780 428.590, 596.843 436.606, 596.089 446.562, 595.152 456.518, 594.215 466.474, 593.279 476.430, 592.342 486.386, 591.405 496.342, 590.468 506.298, 589.531 516.254, 588.594 526.210, 587.657 536.166, 586.720 546.122, 585.783 556.078, 584.846 557.465, 584.716 563.437, 580.289 571.470, 574.333 579.503, 568.378 587.536, 562.422 589.279, 561.130 " />
            <path fill="none" stroke-width="3.0" stroke-linecap="butt" stroke-opacity="1.0" stroke="rgb(0, 0, 0)" stroke-linejoin="round" d=" M 818.687, 382.171 813.631, 385.920 805.598, 391.875 797.565, 397.831 793.754, 400.655 785.721, 406.611 777.688, 412.566 770.849, 417.636 762.816, 423.592 754.783, 429.548 746.750, 435.503 738.717, 441.459 733.336, 445.448 725.303, 451.404 717.270, 457.359 709.237, 463.315 701.204, 469.271 693.170, 475.226 685.137, 481.182 677.104, 487.137 669.071, 493.093 661.038, 499.049 653.005, 505.004 644.972, 510.960 636.939, 516.915 628.906, 522.871 620.896, 528.809 612.863, 534.765 605.757, 540.033 597.724, 545.988 589.691, 551.944 589.279, 552.250 581.246, 558.205 573.212, 564.161 565.919, 569.568 557.886, 575.524 557.465, 575.836 547.509, 576.772 537.553, 577.709 527.597, 578.646 517.641, 579.583 507.685, 580.520 497.729, 581.457 487.773, 582.394 477.817, 583.331 467.861, 584.268 457.905, 585.204 448.217, 586.116 438.261, 587.053 428.305, 587.990 418.349, 588.927 414.985, 589.243 414.985, 589.243 408.678, 589.837 399.245, 586.519 389.811, 583.201 380.378, 579.883 370.944, 576.565 361.511, 573.247 357.052, 571.678 347.618, 568.360 338.185, 565.042 328.751, 561.724 321.500, 559.174 312.067, 555.855 302.633, 552.537 293.200, 549.219 283.766, 545.901 280.905, 544.895 271.472, 541.577 262.038, 538.259 261.537, 538.083 252.104, 534.765 249.875, 533.981 244.818, 532.202 235.385, 528.884 229.279, 526.736 225.884, 517.330 222.490, 507.924 221.993, 506.546 218.598, 497.139 215.204, 487.733 211.809, 478.327 208.415, 468.921 206.917, 464.769 204.388, 457.763 201.860, 450.757 " />
            <path fill="none" stroke-width="3.0" stroke-linecap="butt" stroke-opacity="1.0" stroke="rgb(0, 0, 0)" stroke-linejoin="round" d=" M 589.279, 561.130 597.312, 555.175 600.918, 552.501 608.951, 546.545 611.611, 544.573 619.644, 538.618 627.677, 532.662 635.710, 526.706 643.743, 520.751 651.777, 514.795 659.810, 508.840 667.843, 502.884 675.876, 496.929 683.909, 490.973 691.942, 485.017 699.975, 479.062 708.008, 473.106 716.041, 467.151 724.075, 461.195 732.108, 455.239 740.141, 449.284 748.174, 443.328 756.207, 437.373 758.401, 435.746 766.434, 429.791 774.467, 423.835 782.500, 417.879 784.898, 416.102 792.931, 410.146 801.076, 404.108 809.109, 398.152 816.159, 392.926 818.687, 391.051 " />
            <path fill="none" stroke-width="3.0" stroke-linecap="butt" stroke-opacity="1.0" stroke="rgb(0, 0, 0)" stroke-linejoin="round" d=" M 724.861, 398.448 719.097, 396.420 717.820, 395.971 709.015, 392.874 700.982, 398.830 692.949, 404.785 684.916, 410.741 676.883, 416.697 668.850, 422.652 660.817, 428.608 654.290, 433.447 651.289, 435.671 " />
            <path fill="none" stroke-width="3.0" stroke-linecap="butt" stroke-opacity="1.0" stroke="rgb(0, 0, 0)" stroke-linejoin="round" d=" M 651.289, 470.755 648.002, 473.191 639.969, 479.147 631.936, 485.103 625.114, 490.161 617.081, 496.116 609.048, 502.072 601.015, 508.028 592.982, 513.983 589.279, 516.729 " />
            <path fill="none" stroke-width="3.0" stroke-linecap="butt" stroke-opacity="1.0" stroke="rgb(0, 0, 0)" stroke-linejoin="round" d=" M 589.279, 525.609 597.312, 519.653 605.345, 513.698 613.378, 507.742 620.275, 502.628 628.308, 496.673 636.341, 490.717 644.374, 484.761 648.750, 481.517 656.783, 475.562 658.142, 474.555 666.175, 468.599 674.208, 462.643 682.241, 456.688 690.274, 450.732 698.307, 444.776 706.340, 438.820 714.373, 432.865 722.406, 426.909 728.704, 422.240 736.737, 416.285 744.770, 410.329 752.803, 404.374 760.836, 398.418 768.870, 392.463 771.788, 390.299 773.861, 388.763 781.894, 382.807 789.927, 376.852 797.960, 370.896 806.046, 364.902 813.631, 359.279 816.159, 357.404 818.687, 355.530 " />
            <path fill="none" stroke-width="3.0" stroke-linecap="butt" stroke-opacity="1.0" stroke="rgb(0, 0, 0)" stroke-linejoin="round" d=" M 427.413, 229.553 420.091, 226.978 419.931, 226.922 419.596, 226.804 417.130, 225.937 416.411, 225.683 416.054, 225.558 424.087, 219.602 432.120, 213.647 440.153, 207.691 448.186, 201.735 456.219, 195.780 460.227, 192.809 463.184, 190.617 464.318, 189.776 470.253, 185.375 478.287, 179.420 482.433, 176.346 487.739, 175.847 497.734, 175.539 502.314, 175.398 512.286, 174.659 522.259, 173.919 532.231, 173.180 542.204, 172.440 552.177, 171.700 562.367, 170.945 571.953, 170.234 580.243, 173.150 584.450, 174.629 590.757, 176.848 592.565, 177.483 595.870, 178.646 596.796, 178.972 601.270, 180.545 603.520, 181.337 604.368, 181.635 609.468, 183.429 618.902, 186.747 628.335, 190.065 637.769, 193.383 647.202, 196.701 656.636, 200.019 665.129, 203.007 667.524, 209.385 671.040, 218.747 671.366, 219.617 674.882, 228.979 675.209, 229.849 677.961, 237.178 679.660, 240.295 683.316, 247.003 682.181, 247.844 680.152, 249.348 679.694, 249.688 672.028, 255.371 664.067, 261.274 656.033, 267.229 655.781, 267.417 647.747, 273.372 647.657, 273.440 639.623, 279.395 631.590, 285.351 623.557, 291.306 619.894, 294.023 616.936, 296.215 615.370, 295.664 605.936, 292.346 605.220, 292.094 604.980, 292.272 601.101, 295.148 " />
            <path fill="none" stroke-width="3.0" stroke-linecap="butt" stroke-opacity="1.0" stroke="rgb(0, 0, 0)" stroke-linejoin="round" d=" M 394.663, 253.833 393.483, 253.417 387.182, 251.201 385.358, 250.560 385.108, 250.472 383.462, 249.893 383.305, 249.837 386.007, 247.834 386.806, 247.241 386.994, 247.102 " />
            <path fill="none" stroke-width="3.0" stroke-linecap="butt" stroke-opacity="1.0" stroke="rgb(0, 0, 0)" stroke-linejoin="round" d=" M 380.911, 235.899 378.593, 237.618 378.248, 237.873 377.221, 238.635 384.418, 241.166 384.538, 241.208 384.538, 241.208 384.538, 241.208 384.539, 241.209 385.143, 241.421 " />
            <path fill="none" stroke-width="3.0" stroke-linecap="butt" stroke-opacity="1.0" stroke="rgb(0, 0, 0)" stroke-linejoin="round" d=" M 597.976, 325.297 598.424, 325.455 607.858, 328.773 614.853, 331.233 616.810, 329.782 617.573, 329.216 618.623, 328.438 " />
            <path fill="none" stroke-width="3.0" stroke-linecap="butt" stroke-opacity="1.0" stroke="rgb(0, 0, 0)" stroke-linejoin="round" d=" M 581.642, 337.407 582.090, 337.565 591.523, 340.883 598.518, 343.343 600.391, 341.955 601.181, 341.369 602.208, 340.608 " />
            <path fill="none" stroke-width="3.0" stroke-linecap="butt" stroke-opacity="1.0" stroke="rgb(0, 0, 0)" stroke-linejoin="round" d=" M 587.877, 317.759 584.652, 320.150 584.375, 320.355 584.187, 320.494 578.795, 318.598 578.795, 318.598 576.161, 317.671 574.010, 316.915 572.786, 316.484 572.471, 316.373 572.231, 316.551 568.352, 319.427 " />
            <path fill="none" stroke-width="3.0" stroke-linecap="butt" stroke-opacity="1.0" stroke="rgb(0, 0, 0)" stroke-linejoin="round" d=" M 589.809, 331.352 590.257, 331.510 599.691, 334.828 606.685, 337.288 608.560, 335.898 609.348, 335.314 610.375, 334.553 " />
            <path fill="none" stroke-width="3.0" stroke-linecap="butt" stroke-opacity="1.0" stroke="rgb(0, 0, 0)" stroke-linejoin="round" d=" M 579.710, 323.814 576.485, 326.205 576.208, 326.410 576.020, 326.549 570.628, 324.653 567.993, 323.726 565.842, 322.970 564.619, 322.539 564.304, 322.428 561.215, 324.718 560.975, 324.896 560.184, 325.482 " />
            <path fill="none" stroke-width="3.0" stroke-linecap="butt" stroke-opacity="1.0" stroke="rgb(0, 0, 0)" stroke-linejoin="round" d=" M 364.496, 248.069 362.258, 249.728 361.834, 250.043 360.806, 250.804 363.109, 251.614 364.509, 252.107 368.003, 253.336 368.729, 253.591 " />
            <path fill="none" stroke-width="3.0" stroke-linecap="butt" stroke-opacity="1.0" stroke="rgb(0, 0, 0)" stroke-linejoin="round" d=" M 622.558, 307.073 623.006, 307.230 632.440, 310.548 639.435, 313.009 647.468, 307.053 655.501, 301.097 663.534, 295.142 671.567, 289.186 678.279, 284.210 681.266, 281.996 686.403, 278.188 694.436, 272.232 699.782, 268.269 702.650, 266.142 710.683, 260.186 710.774, 260.119 718.807, 254.163 718.898, 254.096 719.699, 253.502 722.685, 251.289 720.725, 245.858 717.330, 236.452 717.054, 235.687 714.122, 227.563 713.383, 225.515 710.298, 216.965 709.713, 215.344 706.318, 205.938 706.042, 205.173 705.518, 203.719 705.459, 203.557 702.945, 196.590 693.512, 193.272 684.078, 189.954 674.645, 186.636 665.211, 183.318 655.778, 180.000 646.344, 176.682 636.911, 173.364 627.477, 170.046 618.044, 166.728 608.610, 163.410 600.611, 160.596 600.361, 160.508 600.339, 160.500 590.906, 157.182 588.839, 156.456 583.920, 154.725 573.964, 155.662 564.008, 156.599 554.052, 157.536 544.096, 158.473 534.140, 159.410 524.184, 160.347 514.228, 161.284 504.272, 162.221 494.316, 163.157 490.766, 163.492 480.809, 164.428 476.805, 164.805 473.417, 167.317 465.309, 173.328 457.276, 179.284 456.887, 179.572 453.902, 181.785 445.869, 187.741 437.836, 193.696 429.803, 199.652 421.770, 205.607 413.737, 211.563 405.704, 217.518 401.998, 220.266 393.965, 226.221 393.556, 226.525 395.853, 227.333 400.873, 229.098 401.478, 229.311 " />
            <path fill="none" stroke-width="3.0" stroke-linecap="butt" stroke-opacity="1.0" stroke="rgb(0, 0, 0)" stroke-linejoin="round" d=" M 596.125, 311.644 592.899, 314.036 592.547, 314.297 592.354, 314.440 586.963, 312.543 586.963, 312.543 584.408, 311.645 582.177, 310.860 580.954, 310.429 580.638, 310.318 580.398, 310.496 576.519, 313.372 " />
            <path fill="none" stroke-width="3.0" stroke-linecap="butt" stroke-opacity="1.0" stroke="rgb(0, 0, 0)" stroke-linejoin="round" d=" M 356.329, 254.124 354.011, 255.843 353.666, 256.098 352.639, 256.859 359.866, 259.401 360.561, 259.646 " />
            <path fill="none" stroke-width="3.0" stroke-linecap="butt" stroke-opacity="1.0" stroke="rgb(0, 0, 0)" stroke-linejoin="round" d=" M 594.041, 346.663 592.222, 348.011 590.510, 349.280 582.477, 355.236 577.881, 358.643 573.432, 361.942 565.399, 367.897 557.365, 373.853 549.332, 379.809 543.742, 383.953 533.786, 384.890 529.782, 385.267 519.826, 386.203 509.870, 387.140 509.327, 387.191 500.886, 387.986 490.930, 388.923 480.974, 389.859 471.018, 390.796 461.062, 391.733 451.106, 392.670 441.150, 393.607 436.628, 394.033 427.194, 390.715 420.186, 388.250 410.752, 384.931 401.319, 381.613 391.885, 378.295 382.452, 374.977 373.019, 371.659 363.585, 368.341 353.666, 364.852 345.543, 361.995 337.419, 359.137 327.985, 355.819 321.171, 353.423 317.603, 352.167 316.185, 348.239 315.030, 345.039 313.973, 342.110 312.966, 339.320 310.765, 333.220 307.371, 323.814 307.095, 323.049 306.865, 322.414 303.471, 313.007 303.424, 312.878 300.030, 303.471 298.252, 298.546 297.864, 297.469 305.897, 291.513 314.055, 285.465 322.088, 279.509 330.122, 273.553 337.676, 267.953 345.709, 261.997 345.843, 261.898 348.162, 260.179 " />
            <path fill="none" stroke-width="3.0" stroke-linecap="butt" stroke-opacity="1.0" stroke="rgb(0, 0, 0)" stroke-linejoin="round" d=" M 372.744, 241.954 370.425, 243.673 370.023, 243.971 369.258, 244.539 368.974, 244.749 369.258, 244.849 371.987, 245.809 375.946, 247.202 376.290, 247.323 376.290, 247.323 376.291, 247.323 376.291, 247.323 376.291, 247.323 376.291, 247.323 376.896, 247.536 " />
            <path fill="none" stroke-width="3.0" stroke-linecap="butt" stroke-opacity="1.0" stroke="rgb(0, 0, 0)" stroke-linejoin="round" d=" M 651.289, 426.791 659.322, 420.835 667.355, 414.880 670.343, 412.665 678.376, 406.709 686.409, 400.753 694.443, 394.798 702.476, 388.842 709.015, 383.994 715.237, 386.182 724.670, 389.500 724.861, 389.567 732.894, 383.612 740.928, 377.656 742.500, 376.491 750.533, 370.535 758.566, 364.580 766.599, 358.624 773.861, 353.241 781.894, 347.286 789.927, 341.330 791.164, 340.413 795.933, 336.878 803.518, 331.255 806.046, 329.380 808.574, 327.506 811.103, 325.632 813.631, 323.757 816.159, 321.883 818.688, 320.009 " />
            <path fill="none" stroke-width="3.0" stroke-linecap="butt" stroke-opacity="1.0" stroke="rgb(0, 0, 0)" stroke-linejoin="round" d=" M 201.860, 388.595 204.388, 395.601 207.015, 402.878 210.409, 412.285 213.804, 421.691 217.030, 430.631 220.424, 440.037 222.086, 444.643 224.614, 451.648 228.009, 461.055 229.279, 464.574 238.712, 467.892 244.819, 470.040 247.921, 471.131 249.139, 471.559 255.054, 473.640 259.592, 475.236 269.025, 478.554 278.459, 481.872 287.892, 485.190 297.326, 488.508 306.759, 491.826 307.679, 492.150 317.113, 495.468 326.546, 498.786 335.980, 502.104 345.413, 505.422 354.847, 508.740 362.636, 511.480 372.070, 514.798 381.503, 518.116 382.903, 518.609 390.574, 521.307 400.008, 524.625 407.263, 527.177 408.678, 527.675 " />
            <path fill="none" stroke-width="3.0" stroke-linecap="butt" stroke-opacity="1.0" stroke="rgb(0, 0, 0)" stroke-linejoin="round" d=" M 408.678, 518.794 407.263, 518.297 398.090, 515.070 393.603, 513.492 384.169, 510.174 381.749, 509.322 372.315, 506.004 362.882, 502.686 353.448, 499.368 344.015, 496.050 334.582, 492.732 325.148, 489.414 315.715, 486.096 306.281, 482.778 296.848, 479.460 287.414, 476.142 277.981, 472.824 268.547, 469.506 259.592, 466.356 250.158, 463.038 247.218, 462.003 246.684, 461.816 244.819, 461.159 244.354, 460.996 234.921, 457.678 229.279, 455.694 227.143, 449.774 224.614, 442.768 221.220, 433.362 219.558, 428.756 216.163, 419.350 212.769, 409.944 209.375, 400.538 206.917, 393.727 204.875, 388.069 204.388, 386.721 201.860, 379.715 " />
            <path fill="none" stroke-width="3.0" stroke-linecap="butt" stroke-opacity="1.0" stroke="rgb(0, 0, 0)" stroke-linejoin="round" d=" M 408.678, 527.675 418.634, 526.738 428.590, 525.801 438.546, 524.864 448.502, 523.927 458.458, 522.990 468.414, 522.053 478.370, 521.116 488.326, 520.179 498.282, 519.243 508.238, 518.306 511.022, 518.044 511.022, 518.044 520.978, 517.107 529.495, 516.305 539.451, 515.368 549.407, 514.432 557.466, 513.673 565.499, 507.718 573.532, 501.762 581.565, 495.806 583.298, 494.521 589.279, 490.088 597.312, 484.132 605.345, 478.176 613.378, 472.221 621.411, 466.265 629.444, 460.309 635.442, 455.862 639.631, 452.756 643.165, 450.136 651.198, 444.181 651.289, 444.114 " />
            <path fill="none" stroke-width="3.0" stroke-linecap="butt" stroke-opacity="1.0" stroke="rgb(0, 0, 0)" stroke-linejoin="round" d=" M 651.289, 435.233 644.471, 440.288 643.165, 441.256 635.442, 446.982 627.409, 452.938 621.941, 456.991 620.923, 457.746 612.890, 463.702 604.857, 469.657 596.824, 475.613 589.279, 481.207 585.781, 483.801 577.748, 489.756 577.353, 490.049 576.962, 490.338 568.929, 496.294 560.896, 502.250 557.466, 504.793 547.509, 505.730 541.106, 506.332 531.150, 507.269 521.194, 508.206 520.377, 508.283 513.709, 508.911 503.989, 509.825 494.033, 510.762 484.077, 511.699 474.121, 512.636 464.165, 513.573 454.209, 514.510 444.253, 515.447 434.297, 516.383 424.341, 517.320 414.385, 518.257 408.678, 518.794 " />
            <path fill="none" stroke-width="3.0" stroke-linecap="butt" stroke-opacity="1.0" stroke="rgb(0, 0, 0)" stroke-linejoin="round" d=" M 389.078, 229.844 386.416, 231.818 385.388, 232.580 387.686, 233.388 392.583, 235.110 392.705, 235.153 392.705, 235.153 393.310, 235.366 " />
            <path fill="none" stroke-width="3.0" stroke-linecap="butt" stroke-opacity="1.0" stroke="rgb(0, 0, 0)" stroke-linejoin="round" d=" M 614.391, 313.128 623.824, 316.446 631.267, 319.064 633.148, 317.670 633.930, 317.090 634.957, 316.328 " />
            <path fill="none" stroke-width="3.0" stroke-linecap="butt" stroke-opacity="1.0" stroke="rgb(0, 0, 0)" stroke-linejoin="round" d=" M 606.224, 319.182 606.672, 319.340 616.105, 322.658 623.100, 325.119 624.979, 323.726 625.763, 323.145 626.790, 322.383 " />
            <path fill="none" stroke-width="3.0" stroke-linecap="butt" stroke-opacity="1.0" stroke="rgb(0, 0, 0)" stroke-linejoin="round" d=" M 370.660, 259.212 369.592, 260.004 369.258, 260.251 368.249, 260.999 361.425, 266.059 353.392, 272.014 345.358, 277.970 337.233, 283.994 337.282, 284.130 340.676, 293.537 341.761, 296.543 345.155, 305.949 345.900, 308.013 347.862, 313.449 348.869, 316.239 351.080, 322.368 352.845, 327.256 353.609, 329.374 353.822, 329.966 363.256, 333.284 369.383, 335.440 375.299, 337.520 377.507, 338.297 379.377, 338.955 385.631, 341.154 395.065, 344.472 404.498, 347.791 413.931, 351.109 423.365, 354.427 432.798, 357.745 442.245, 361.068 448.089, 363.123 458.045, 362.186 468.001, 361.249 477.957, 360.312 479.244, 360.191 489.200, 359.255 494.976, 358.711 497.213, 358.500 503.273, 357.930 510.816, 357.220 514.117, 356.910 524.073, 355.973 527.934, 355.609 532.808, 355.151 538.115, 354.651 539.327, 353.753 547.360, 347.797 555.394, 341.842 563.427, 335.886 565.116, 334.634 566.807, 333.380 567.527, 332.846 568.317, 332.260 571.543, 329.869 " />
            <path fill="none" stroke-width="3.0" stroke-linecap="butt" stroke-opacity="1.0" stroke="rgb(0, 0, 0)" stroke-linejoin="round" d=" M 395.242, 240.987 395.050, 241.130 394.174, 241.779 391.472, 243.782 393.525, 244.505 395.349, 245.146 398.608, 246.292 399.626, 246.650 401.650, 247.362 402.831, 247.778 " />
            <path fill="none" stroke-width="3.0" stroke-linecap="butt" stroke-opacity="1.0" stroke="rgb(0, 0, 0)" stroke-linejoin="round" d=" M 403.409, 234.932 403.221, 235.072 402.341, 235.724 399.719, 237.668 403.597, 239.032 409.898, 241.248 411.078, 241.663 " />
            <path fill="none" stroke-width="3.0" stroke-linecap="butt" stroke-opacity="1.0" stroke="rgb(0, 0, 0)" stroke-linejoin="round" d=" M 411.576, 228.877 411.388, 229.017 407.887, 231.613 408.243, 231.738 411.429, 232.859 411.764, 232.977 411.924, 233.033 418.768, 235.440 419.245, 235.608 " />
            <path fill="none" stroke-width="3.0" stroke-linecap="butt" stroke-opacity="1.0" stroke="rgb(0, 0, 0)" stroke-linejoin="round" d=" M 812.907, 417.062 804.874, 423.017 796.841, 428.973 788.808, 434.929 780.775, 440.884 772.742, 446.840 764.709, 452.795 756.676, 458.751 748.642, 464.706 740.609, 470.662 732.576, 476.618 728.606, 479.561 720.573, 485.517 712.539, 491.472 704.506, 497.428 696.473, 503.384 688.440, 509.339 680.407, 515.295 672.374, 521.250 664.341, 527.206 656.308, 533.162 648.274, 539.117 640.241, 545.073 632.208, 551.028 624.175, 556.984 616.142, 562.940 608.109, 568.895 600.076, 574.851 592.043, 580.806 584.782, 586.189 576.749, 592.145 574.196, 594.037 566.163, 599.993 558.130, 605.948 554.251, 608.824 544.295, 609.761 534.339, 610.698 524.383, 611.635 514.427, 612.571 504.471, 613.508 503.193, 613.629 493.237, 614.566 483.281, 615.502 473.325, 616.439 463.369, 617.376 453.413, 618.313 443.457, 619.250 433.501, 620.187 423.545, 621.124 413.589, 622.061 409.913, 622.407 400.480, 619.089 391.046, 615.770 381.613, 612.452 372.179, 609.134 362.746, 605.816 353.312, 602.498 346.711, 600.176 337.277, 596.858 327.844, 593.540 318.410, 590.222 308.977, 586.904 299.543, 583.586 290.110, 580.268 280.676, 576.950 271.243, 573.632 261.809, 570.314 252.376, 566.996 242.942, 563.677 234.239, 560.616 " />
            <path fill="none" stroke-width="3.0" stroke-linecap="butt" stroke-opacity="1.0" stroke="rgb(0, 0, 0)" stroke-linejoin="round" d=" M 201.860, 441.877 205.255, 451.283 206.917, 455.889 209.445, 462.895 212.839, 472.301 216.234, 481.707 219.628, 491.114 219.853, 491.736 223.247, 501.142 226.642, 510.549 229.279, 517.856 238.712, 521.174 244.818, 523.322 254.252, 526.640 259.445, 528.466 259.592, 528.518 269.025, 531.836 271.011, 532.534 280.444, 535.852 289.878, 539.170 293.665, 540.502 294.037, 540.226 299.665, 536.054 " />
            <path fill="none" stroke-width="3.0" stroke-linecap="butt" stroke-opacity="1.0" stroke="rgb(0, 0, 0)" stroke-linejoin="round" d=" M 299.665, 527.173 296.391, 529.601 293.665, 531.622 284.231, 528.304 280.484, 526.986 271.051, 523.668 261.617, 520.350 259.592, 519.638 258.741, 519.339 257.524, 518.910 248.091, 515.592 244.819, 514.441 235.385, 511.123 229.279, 508.976 225.884, 499.569 222.490, 490.163 219.095, 480.757 217.713, 476.926 214.319, 467.520 211.973, 461.020 209.445, 454.014 206.050, 444.608 204.388, 440.003 201.860, 432.997 " />
            <path fill="none" stroke-width="3.0" stroke-linecap="butt" stroke-opacity="1.0" stroke="rgb(0, 0, 0)" stroke-linejoin="round" d=" M 408.678, 598.717 399.245, 595.399 389.811, 592.081 380.378, 588.763 372.213, 585.891 362.779, 582.573 353.346, 579.255 343.912, 575.937 334.479, 572.619 325.045, 569.301 315.612, 565.983 306.178, 562.665 296.745, 559.347 294.418, 558.528 284.984, 555.210 275.551, 551.892 266.118, 548.574 265.744, 548.443 256.311, 545.125 252.064, 543.631 242.631, 540.313 233.197, 536.995 229.279, 535.616 225.884, 526.210 224.132, 521.355 220.738, 511.948 217.343, 502.542 213.949, 493.136 210.554, 483.730 207.160, 474.323 204.388, 466.644 201.860, 459.638 " />
            <path fill="none" stroke-width="3.0" stroke-linecap="butt" stroke-opacity="1.0" stroke="rgb(0, 0, 0)" stroke-linejoin="round" d=" M 818.687, 346.650 816.159, 348.524 813.631, 350.398 811.103, 352.273 803.518, 357.896 795.485, 363.851 787.451, 369.807 779.418, 375.762 773.861, 379.882 765.827, 385.838 764.466, 386.847 756.433, 392.803 748.400, 398.758 740.366, 404.714 732.333, 410.669 724.861, 416.208 722.985, 415.548 719.097, 414.181 717.446, 413.600 709.413, 419.556 701.379, 425.511 693.346, 431.467 685.313, 437.422 678.306, 442.618 670.272, 448.573 662.239, 454.529 654.206, 460.485 651.289, 462.647 " />
            <path fill="none" stroke-width="3.0" stroke-linecap="butt" stroke-opacity="1.0" stroke="rgb(0, 0, 0)" stroke-linejoin="round" d=" M 818.687, 337.769 816.159, 339.644 813.631, 341.518 811.103, 343.392 808.574, 345.267 800.990, 350.890 792.956, 356.845 784.923, 362.801 776.890, 368.756 773.861, 371.002 765.827, 376.958 757.794, 382.913 757.144, 383.395 749.111, 389.351 741.078, 395.306 733.044, 401.261 724.861, 407.328 720.402, 405.760 719.097, 405.301 710.973, 402.443 709.015, 401.755 700.982, 407.710 692.949, 413.666 684.916, 419.621 676.883, 425.577 668.850, 431.532 660.817, 437.488 652.783, 443.444 651.289, 444.552 " />
            <path fill="none" stroke-width="3.0" stroke-linecap="butt" stroke-opacity="1.0" stroke="rgb(0, 0, 0)" stroke-linejoin="round" d=" M 589.279, 507.848 597.312, 501.893 605.345, 495.937 613.378, 489.981 621.411, 484.026 629.444, 478.070 629.953, 477.692 637.986, 471.737 643.479, 467.665 651.289, 461.874 " />
            <path fill="none" stroke-width="3.0" stroke-linecap="butt" stroke-opacity="1.0" stroke="rgb(0, 0, 0)" stroke-linejoin="round" d=" M 818.687, 328.889 816.159, 330.763 813.631, 332.638 811.103, 334.512 808.574, 336.386 806.046, 338.261 803.518, 340.135 800.990, 342.009 798.461, 343.884 795.933, 345.758 789.024, 350.880 780.991, 356.836 779.136, 358.211 773.861, 362.122 773.229, 362.590 773.229, 362.590 771.058, 364.199 768.886, 365.810 766.714, 367.420 766.714, 367.420 765.337, 368.440 757.304, 374.396 749.821, 379.943 741.788, 385.899 733.755, 391.854 725.722, 397.810 724.861, 398.448 " />
            <path fill="none" stroke-width="3.0" stroke-linecap="butt" stroke-opacity="1.0" stroke="rgb(0, 0, 0)" stroke-linejoin="round" d=" M 296.844, 520.385 295.021, 521.737 295.021, 521.737 293.665, 522.742 289.957, 521.438 " />
            <path fill="none" stroke-width="3.0" stroke-linecap="butt" stroke-opacity="1.0" stroke="rgb(0, 0, 0)" stroke-linejoin="round" d=" M 201.861, 361.954 203.355, 366.094 206.749, 375.501 206.917, 375.966 207.882, 378.640 209.445, 382.972 211.974, 389.978 215.368, 399.384 218.762, 408.790 219.558, 410.995 222.953, 420.402 224.615, 425.007 228.009, 434.413 229.279, 437.933 230.539, 438.376 238.663, 441.233 244.819, 443.399 246.684, 444.055 246.786, 444.091 252.980, 446.269 256.821, 447.620 258.742, 448.296 259.592, 448.595 268.677, 451.791 278.111, 455.109 287.544, 458.427 296.978, 461.745 306.411, 465.063 315.845, 468.381 325.278, 471.699 334.712, 475.017 344.145, 478.335 353.579, 481.653 363.012, 484.971 372.446, 488.289 381.879, 491.607 391.313, 494.926 400.746, 498.244 408.678, 501.033 418.634, 500.097 428.590, 499.160 438.546, 498.223 441.353, 497.959 451.309, 497.022 461.265, 496.085 471.221, 495.148 481.177, 494.211 491.133, 493.274 501.089, 492.337 503.989, 492.064 513.710, 491.150 520.377, 490.522 530.333, 489.585 540.289, 488.648 547.732, 487.948 547.788, 487.943 548.090, 487.914 557.465, 487.032 565.498, 481.076 567.879, 479.311 568.373, 478.945 569.391, 478.191 577.424, 472.235 585.457, 466.279 593.490, 460.324 601.523, 454.368 604.885, 451.876 612.953, 445.895 620.923, 439.985 621.941, 439.231 629.974, 433.275 635.442, 429.222 643.475, 423.266 644.852, 422.246 646.488, 421.032 654.521, 415.077 662.554, 409.121 670.587, 403.166 678.620, 397.210 686.653, 391.254 694.687, 385.299 702.720, 379.343 710.753, 373.388 718.786, 367.432 726.808, 361.485 727.826, 360.730 735.859, 354.774 743.892, 348.819 751.925, 342.863 759.958, 336.908 767.992, 330.952 773.861, 326.601 779.359, 322.525 780.376, 321.770 781.885, 320.652 786.874, 316.953 790.008, 314.629 793.860, 311.774 795.933, 310.237 798.461, 308.362 800.990, 306.488 803.518, 304.614 806.046, 302.739 808.574, 300.865 811.103, 298.990 813.631, 297.116 816.159, 295.242 817.193, 294.475 818.687, 293.368 " />
            <path fill="none" stroke-width="3.0" stroke-linecap="butt" stroke-opacity="1.0" stroke="rgb(0, 0, 0)" stroke-linejoin="round" d=" M 557.466, 495.913 552.716, 496.360 547.731, 496.829 537.775, 497.766 527.819, 498.702 520.377, 499.403 513.709, 500.030 503.989, 500.945 499.888, 501.331 489.932, 502.268 479.976, 503.205 470.020, 504.141 460.064, 505.078 450.108, 506.015 440.152, 506.952 430.196, 507.889 420.240, 508.826 410.284, 509.763 408.678, 509.914 407.263, 509.416 405.605, 508.833 404.302, 508.375 " />
            <path fill="none" stroke-width="3.0" stroke-linecap="butt" stroke-opacity="1.0" stroke="rgb(0, 0, 0)" stroke-linejoin="round" d=" M 201.860, 370.834 202.735, 373.259 204.388, 377.840 206.917, 384.846 209.445, 391.852 212.839, 401.258 216.234, 410.665 219.628, 420.071 222.086, 426.882 225.481, 436.288 227.143, 440.894 229.279, 446.813 230.539, 447.256 233.655, 448.352 238.663, 450.114 244.819, 452.279 246.684, 452.935 256.118, 456.253 258.741, 457.176 259.592, 457.475 269.025, 460.793 273.535, 462.380 282.969, 465.698 292.402, 469.016 301.836, 472.334 311.269, 475.652 320.702, 478.970 330.136, 482.288 339.569, 485.606 349.003, 488.924 358.436, 492.242 367.870, 495.560 377.303, 498.878 386.737, 502.196 396.170, 505.514 400.862, 507.165 404.302, 508.375 " />
            <path fill="none" stroke-width="3.0" stroke-linecap="butt" stroke-opacity="1.0" stroke="rgb(0, 0, 0)" stroke-linejoin="round" d=" M 818.688, 311.128 816.159, 313.003 813.631, 314.877 811.103, 316.751 808.574, 318.626 806.046, 320.500 803.518, 322.374 800.990, 324.249 793.405, 329.872 785.372, 335.827 780.376, 339.531 779.359, 340.285 774.126, 344.164 773.861, 344.361 765.827, 350.317 757.794, 356.272 749.761, 362.227 741.728, 368.183 735.786, 372.588 735.396, 372.877 735.178, 373.039 727.145, 378.994 724.861, 380.687 715.428, 377.369 713.524, 376.699 " />
            <path fill="none" stroke-width="3.0" stroke-linecap="butt" stroke-opacity="1.0" stroke="rgb(0, 0, 0)" stroke-linejoin="round" d=" M 651.289, 426.353 649.310, 427.820 643.165, 432.376 635.442, 438.102 633.290, 439.697 625.257, 445.653 621.941, 448.111 620.923, 448.866 612.953, 454.775 604.920, 460.731 596.887, 466.686 589.279, 472.327 588.263, 473.080 580.230, 479.035 572.197, 484.991 569.391, 487.072 568.838, 487.481 560.805, 493.437 557.466, 495.913 " />
            <path fill="none" stroke-width="3.0" stroke-linecap="butt" stroke-opacity="1.0" stroke="rgb(0, 0, 0)" stroke-linejoin="round" d=" M 818.688, 302.248 816.159, 304.122 813.631, 305.997 811.103, 307.871 808.574, 309.745 806.046, 311.620 803.518, 313.494 800.990, 315.368 798.461, 317.243 790.428, 323.198 790.008, 323.510 781.975, 329.465 780.376, 330.650 779.359, 331.405 773.861, 335.481 765.827, 341.436 757.794, 347.392 749.761, 353.347 741.728, 359.303 733.695, 365.258 727.856, 369.587 727.826, 369.609 727.272, 370.020 724.861, 371.807 721.648, 370.676 " />
            <path fill="none" stroke-width="3.0" stroke-linecap="butt" stroke-opacity="1.0" stroke="rgb(0, 0, 0)" stroke-linejoin="round" d=" M 608.069, 134.953 617.502, 138.271 626.936, 141.589 636.369, 144.907 645.803, 148.226 655.236, 151.544 664.670, 154.862 674.103, 158.180 683.537, 161.498 692.970, 164.816 702.404, 168.134 711.837, 171.452 721.364, 174.803 730.798, 178.121 740.231, 181.439 749.665, 184.757 759.098, 188.075 768.532, 191.393 777.965, 194.711 779.256, 195.166 779.354, 195.438 782.749, 204.844 783.025, 205.609 786.420, 215.015 786.696, 215.780 788.865, 221.792 792.260, 231.198 795.654, 240.604 796.572, 243.149 799.967, 252.555 803.361, 261.961 805.631, 268.250 803.724, 269.664 801.196, 271.538 798.668, 273.412 796.139, 275.287 793.611, 277.161 790.671, 279.341 785.539, 283.145 782.547, 285.364 775.029, 290.938 774.423, 291.387 773.863, 291.802 772.096, 293.112 764.063, 299.067 758.175, 303.432 750.142, 309.388 750.052, 309.455 742.018, 315.411 733.985, 321.367 725.952, 327.322 717.919, 333.278 709.886, 339.233 701.853, 345.189 693.820, 351.144 685.787, 357.100 677.753, 363.056 669.720, 369.011 661.687, 374.967 660.098, 376.145 652.064, 382.101 644.031, 388.057 635.998, 394.012 627.965, 399.968 619.932, 405.923 611.899, 411.879 603.866, 417.835 601.213, 419.801 593.179, 425.757 585.146, 431.713 577.113, 437.668 571.265, 442.004 563.232, 447.959 555.599, 453.619 545.643, 454.556 535.687, 455.492 525.731, 456.429 515.775, 457.366 505.819, 458.303 495.863, 459.240 485.907, 460.177 475.951, 461.114 465.995, 462.051 461.635, 462.461 451.679, 463.398 441.723, 464.335 431.767, 465.272 421.811, 466.208 412.479, 467.087 405.032, 464.467 404.639, 464.329 395.206, 461.011 388.644, 458.703 379.210, 455.385 369.777, 452.067 360.343, 448.749 350.910, 445.431 341.476, 442.113 332.043, 438.795 322.609, 435.476 313.176, 432.158 303.742, 428.840 299.184, 427.237 289.750, 423.919 280.317, 420.601 279.065, 420.160 270.941, 417.303 262.817, 414.446 255.737, 411.955 253.031, 411.003 251.111, 410.328 249.190, 409.652 246.684, 408.771 246.569, 408.731 241.292, 406.874 240.406, 404.420 237.878, 397.414 235.349, 390.408 232.821, 383.402 230.293, 376.396 227.765, 369.390 225.236, 362.384 223.976, 358.892 221.674, 352.513 220.180, 348.373 217.652, 341.367 215.124, 334.361 214.917, 333.790 222.950, 327.834 230.984, 321.878 239.017, 315.923 247.050, 309.967 255.083, 304.012 263.116, 298.056 271.149, 292.100 279.182, 286.145 287.215, 280.189 295.249, 274.234 303.282, 268.278 311.315, 262.323 319.348, 256.367 327.381, 250.411 335.414, 244.456 343.447, 238.500 351.480, 232.545 359.795, 226.380 367.828, 220.425 375.861, 214.469 383.894, 208.514 391.928, 202.558 399.961, 196.602 407.994, 190.647 416.027, 184.691 424.060, 178.736 432.093, 172.780 434.348, 171.109 442.381, 165.153 450.414, 159.197 454.439, 156.214 462.472, 150.258 464.949, 148.421 " />
            <path fill="none" stroke-width="3.0" stroke-linecap="butt" stroke-opacity="1.0" stroke="rgb(0, 0, 0)" stroke-linejoin="round" d=" M 201.861, 353.074 204.389, 360.080 205.883, 364.220 209.278, 373.626 209.445, 374.091 211.974, 381.097 214.502, 388.103 217.847, 397.373 221.242, 406.779 222.087, 409.121 225.481, 418.527 227.143, 423.133 229.279, 429.053 238.663, 432.353 246.684, 435.175 246.786, 435.211 251.059, 436.713 254.900, 438.064 254.910, 438.068 256.821, 438.740 258.741, 439.415 259.592, 439.715 269.025, 443.033 278.459, 446.351 287.892, 449.669 297.326, 452.987 306.759, 456.305 316.193, 459.623 325.626, 462.941 333.877, 465.843 343.310, 469.161 352.744, 472.479 362.177, 475.797 371.611, 479.115 381.044, 482.433 390.478, 485.752 399.911, 489.070 408.678, 492.153 414.397, 491.615 424.353, 490.678 434.309, 489.741 444.266, 488.804 454.221, 487.867 464.178, 486.930 474.134, 485.993 484.090, 485.057 493.085, 484.210 495.427, 483.990 503.989, 483.184 513.674, 482.273 520.377, 481.642 530.333, 480.705 537.722, 480.010 540.080, 479.788 547.732, 479.068 557.465, 478.152 565.498, 472.196 568.373, 470.065 569.391, 469.310 575.176, 465.021 575.484, 464.793 583.517, 458.837 585.113, 457.654 593.146, 451.698 601.179, 445.743 604.885, 442.995 612.918, 437.040 620.951, 431.084 628.984, 425.129 635.442, 420.341 638.364, 418.175 646.397, 412.219 654.430, 406.264 662.463, 400.308 670.496, 394.353 678.530, 388.397 686.563, 382.441 694.596, 376.486 702.629, 370.530 710.992, 364.330 719.026, 358.374 726.808, 352.604 727.826, 351.850 733.612, 347.560 733.919, 347.332 741.952, 341.377 749.985, 335.421 758.018, 329.466 766.052, 323.510 773.761, 317.795 773.861, 317.721 781.885, 311.772 786.874, 308.073 793.405, 303.231 795.933, 301.356 798.461, 299.482 800.990, 297.608 803.518, 295.733 805.422, 294.321 806.046, 293.859 808.574, 291.984 811.103, 290.110 813.631, 288.236 814.665, 287.469 816.159, 286.362 818.687, 284.487 " />
            <path fill="none" stroke-width="3.0" stroke-linecap="butt" stroke-opacity="1.0" stroke="rgb(0, 0, 0)" stroke-linejoin="round" d=" M 201.861, 344.194 204.389, 351.200 206.917, 358.205 208.411, 362.346 211.806, 371.752 211.974, 372.217 214.502, 379.223 217.030, 386.229 220.425, 395.635 222.087, 400.241 224.615, 407.247 227.812, 416.106 229.279, 420.172 230.539, 420.615 239.972, 423.933 246.684, 426.294 246.786, 426.330 249.139, 427.158 252.980, 428.509 254.901, 429.184 254.910, 429.188 256.821, 429.860 259.527, 430.811 263.034, 432.045 272.468, 435.363 281.901, 438.681 291.335, 441.999 300.768, 445.317 310.202, 448.635 319.635, 451.953 329.069, 455.272 338.502, 458.590 347.936, 461.908 357.369, 465.226 366.802, 468.544 376.236, 471.862 385.669, 475.180 395.103, 478.498 399.076, 479.895 408.509, 483.214 408.678, 483.273 418.634, 482.336 428.590, 481.399 438.546, 480.462 448.502, 479.525 458.458, 478.588 468.414, 477.651 478.370, 476.715 487.074, 475.895 491.663, 475.464 501.619, 474.527 503.180, 474.380 503.989, 474.304 505.577, 474.154 507.877, 473.938 517.833, 473.001 519.767, 472.819 520.377, 472.761 530.333, 471.825 532.070, 471.661 542.121, 470.715 549.501, 470.021 557.465, 469.271 565.498, 463.316 573.531, 457.360 581.564, 451.405 589.597, 445.449 597.631, 439.493 602.347, 435.997 604.885, 434.115 612.918, 428.160 620.951, 422.204 628.984, 416.248 637.018, 410.293 645.051, 404.337 653.084, 398.382 661.117, 392.426 669.150, 386.470 677.183, 380.515 685.216, 374.559 693.249, 368.604 701.283, 362.648 709.316, 356.693 717.349, 350.737 725.382, 344.781 733.415, 338.826 741.448, 332.870 749.481, 326.915 757.514, 320.959 765.637, 314.937 773.670, 308.982 773.761, 308.914 773.861, 308.840 777.133, 306.414 785.166, 300.459 786.874, 299.193 790.008, 296.869 793.405, 294.351 795.933, 292.476 798.461, 290.602 800.990, 288.727 803.518, 286.853 806.046, 284.979 808.574, 283.104 811.103, 281.230 812.137, 280.463 813.630, 279.356 816.159, 277.481 816.984, 276.869 818.687, 275.607 " />
            <path fill="none" stroke-width="3.0" stroke-linecap="butt" stroke-opacity="1.0" stroke="rgb(0, 0, 0)" stroke-linejoin="round" d=" M 467.138, 147.483 466.006, 148.322 457.973, 154.277 449.940, 160.233 444.302, 164.413 437.957, 169.117 429.924, 175.072 421.891, 181.028 413.858, 186.984 405.825, 192.939 397.792, 198.895 389.759, 204.850 381.725, 210.806 373.692, 216.761 365.659, 222.717 357.626, 228.673 349.593, 234.628 341.560, 240.584 333.527, 246.539 325.494, 252.495 317.461, 258.451 309.427, 264.406 301.394, 270.362 293.361, 276.317 285.328, 282.273 275.978, 289.205 267.945, 295.161 259.911, 301.116 251.878, 307.072 243.845, 313.027 235.812, 318.983 230.229, 323.122 230.240, 323.154 232.768, 330.160 235.296, 337.166 236.791, 341.306 240.173, 350.678 240.353, 351.177 241.190, 353.499 242.881, 358.183 245.409, 365.189 246.684, 368.723 247.506, 370.998 247.937, 372.195 248.759, 374.472 248.935, 374.960 249.910, 377.661 250.466, 379.201 252.994, 386.207 255.378, 392.813 255.841, 392.976 263.965, 395.834 265.436, 396.351 271.011, 398.312 280.213, 401.548 288.337, 404.406 296.461, 407.263 305.894, 410.581 315.328, 413.900 324.761, 417.218 334.195, 420.536 343.628, 423.854 353.062, 427.172 362.495, 430.490 371.929, 433.808 372.927, 434.159 375.645, 435.115 379.640, 436.520 381.159, 437.055 388.644, 439.687 391.843, 440.813 391.844, 440.813 392.592, 441.076 402.026, 444.394 405.032, 445.452 409.537, 447.036 416.937, 449.639 426.893, 448.702 433.358, 448.093 433.473, 448.083 434.109, 448.023 444.065, 447.086 454.021, 446.149 463.977, 445.212 473.933, 444.275 483.889, 443.338 493.845, 442.401 503.801, 441.465 513.757, 440.528 523.738, 439.588 533.694, 438.652 543.650, 437.715 553.147, 436.821 553.410, 436.796 561.443, 430.841 569.476, 424.885 577.510, 418.929 585.543, 412.974 587.449, 411.561 595.482, 405.605 596.906, 404.549 604.939, 398.594 612.972, 392.638 621.005, 386.683 629.038, 380.727 637.071, 374.771 645.104, 368.816 653.138, 362.860 661.171, 356.905 669.204, 350.949 677.237, 344.994 685.270, 339.038 693.303, 333.082 701.336, 327.127 709.369, 321.171 717.403, 315.216 724.846, 309.698 732.879, 303.742 733.178, 303.520 741.211, 297.565 741.302, 297.497 749.335, 291.542 757.368, 285.586 757.549, 285.452 761.139, 282.790 765.673, 279.429 767.585, 278.012 770.791, 275.635 773.797, 273.406 781.830, 267.450 781.921, 267.383 783.975, 265.860 790.045, 261.360 790.319, 261.157 786.925, 251.750 786.773, 251.329 783.378, 241.922 783.102, 241.157 779.708, 231.751 779.432, 230.986 776.037, 221.580 774.260, 216.655 772.090, 210.643 770.638, 206.619 768.420, 200.472 765.170, 191.466 755.736, 188.148 746.889, 185.036 737.455, 181.718 728.022, 178.400 718.588, 175.082 709.155, 171.764 699.721, 168.446 690.288, 165.128 680.854, 161.809 671.421, 158.491 661.987, 155.173 652.554, 151.855 643.120, 148.537 639.388, 147.224 629.955, 143.906 620.521, 140.588 611.088, 137.270 609.587, 136.742 605.254, 135.218 603.611, 134.640 " />
            <path fill="none" stroke-width="3.0" stroke-linecap="butt" stroke-opacity="1.0" stroke="rgb(0, 0, 0)" stroke-linejoin="round" d=" M 604.292, 305.589 601.067, 307.981 600.790, 308.185 600.602, 308.325 595.210, 306.428 592.575, 305.502 590.424, 304.745 589.201, 304.315 588.885, 304.204 588.646, 304.382 584.766, 307.258 " />
            <path fill="none" stroke-width="3.0" stroke-linecap="butt" stroke-opacity="1.0" stroke="rgb(0, 0, 0)" stroke-linejoin="round" d=" M 612.459, 299.534 609.234, 301.926 608.957, 302.130 608.769, 302.270 607.203, 301.719 603.377, 300.373 600.743, 299.447 597.053, 298.149 596.813, 298.327 592.933, 301.203 " />
            <path fill="none" stroke-width="3.0" stroke-linecap="butt" stroke-opacity="1.0" stroke="rgb(0, 0, 0)" stroke-linejoin="round" d=" M 604.667, 354.386 604.139, 354.200 " />
            <path fill="none" stroke-width="3.0" stroke-linecap="butt" stroke-opacity="1.0" stroke="rgb(0, 0, 0)" stroke-linejoin="round" d=" M 612.834, 348.331 612.307, 348.146 " />
            <path fill="none" stroke-width="3.0" stroke-linecap="butt" stroke-opacity="1.0" stroke="rgb(0, 0, 0)" stroke-linejoin="round" d=" M 621.001, 342.276 620.474, 342.091 " />
            <path fill="none" stroke-width="3.0" stroke-linecap="butt" stroke-opacity="1.0" stroke="rgb(0, 0, 0)" stroke-linejoin="round" d=" M 629.249, 336.162 628.722, 335.976 " />
            <path fill="none" stroke-width="3.0" stroke-linecap="butt" stroke-opacity="1.0" stroke="rgb(0, 0, 0)" stroke-linejoin="round" d=" M 637.416, 330.107 636.889, 329.921 " />
            <path fill="none" stroke-width="3.0" stroke-linecap="butt" stroke-opacity="1.0" stroke="rgb(0, 0, 0)" stroke-linejoin="round" d=" M 645.583, 324.052 645.056, 323.866 " />
        </g>
    </g>
</svg>
